<svg version="1.2" xmlns="http://www.w3.org/2000/svg" viewBox="0 0 1248 717" width="1248" height="717">
	<title>2451376</title>
	<defs>
		<clipPath clipPathUnits="userSpaceOnUse" id="cp1">
			<path d="m543.36 669.86h-267.71c-15.71 0-28.44-12.73-28.44-28.44v-157.44c0-15.71 12.73-28.45 28.44-28.45h267.71c15.71 0 28.45 12.74 28.45 28.45v157.44c0 15.71-12.74 28.44-28.45 28.44z"/>
		</clipPath>
		<radialGradient id="g1" cx="0" cy="0" r="1" gradientUnits="userSpaceOnUse" gradientTransform="matrix(134.364,0,0,134.364,281.479,532.402)">
			<stop offset="0" stop-color="#ffffff" stop-opacity="1"/>
			<stop offset="1" stop-color="#ffffff" stop-opacity="0"/>
		</radialGradient>
		<linearGradient id="g2" x2="1" gradientUnits="userSpaceOnUse" gradientTransform="matrix(0,133.79,-324.602,0,437.08,455.534)">
			<stop offset="0" stop-color="#ffd71d"/>
			<stop offset="1" stop-color="#feb200"/>
		</linearGradient>
		<linearGradient id="g3" x2="1" gradientUnits="userSpaceOnUse" gradientTransform="matrix(-92.985,0,0,-134.923,988.067,395.576)">
			<stop offset="0" stop-color="#343a44"/>
			<stop offset="1" stop-color="#142138"/>
		</linearGradient>
		<linearGradient id="g4" x2="1" gradientUnits="userSpaceOnUse" gradientTransform="matrix(-131.574,0,0,-176.354,965.334,362.18)">
			<stop offset="0" stop-color="#343a44"/>
			<stop offset="1" stop-color="#142138"/>
		</linearGradient>
	</defs>
	<style>
		.s0 { fill: #afb3bd } 
		.s1 { fill: #f5c5b3 } 
		.s2 { fill: #42b2fc } 
		.s3 { fill: #fec4ad } 
		.s4 { mix-blend-mode: multiply;fill: #e8d4e5 } 
		.s5 { fill: #7b2b1a } 
		.s6 { fill: #133a50 } 
		.s7 { fill: #ffffff } 
		.s8 { fill: none;stroke: #ffffff;stroke-miterlimit:10;stroke-width: 4 } 
		.s9 { fill: #4fae86 } 
		.s10 { fill: #319188 } 
		.s11 { fill: none;stroke: #194459;stroke-miterlimit:10;stroke-width: 2 } 
		.s12 { fill: none;stroke: #ffffff;stroke-miterlimit:10;stroke-width: 2 } 
		.s13 { fill: #21295b } 
		.s14 { fill: #ff3a46 } 
		.s15 { mix-blend-mode: multiply;fill: #cfcfcf } 
		.s16 { fill: #b3b3b3 } 
		.s17 { fill: #d6313b } 
		.s18 { fill: #ffd71d } 
		.s19 { mix-blend-mode: multiply;fill: #ffd71d } 
		.s20 { opacity: .7;mix-blend-mode: overlay;fill: url(#g1) } 
		.s21 { fill: url(#g2) } 
		.s22 { opacity: .7;mix-blend-mode: overlay;fill: #ffdd00 } 
		.s23 { fill: url(#g3) } 
		.s24 { fill: url(#g4) } 
		.s25 { fill: #471a16 } 
	</style>
	<g id="OBJECTS">
		<g id="&lt;Group&gt;">
			<g id="&lt;Group&gt;">
				<path id="&lt;Path&gt;" class="s0" d="m154.7 426.1c-61.5 38.7-93.8 125.9-43.9 242.1h980.1c16.6-42.1 26.6-97.4 29.7-130.4 6.8-71.8-17.6-146.4-60.7-185.8-108.9-99.7-199.4 38.8-256.7-19.7-33-33.8-29.9-128.7-55.8-172.7-57.1-97.2-164.5-145.1-270.5-127.9-70.5 11.5-134.1 48.8-172.9 111.9-53.2 86.5-14.5 148.5-37.9 208.2-26.2 66.7-70.3 48.4-111.4 74.3z"/>
				<g id="&lt;Group&gt;">
					<g id="&lt;Group&gt;">
						<path id="&lt;Path&gt;" class="s1" d="m241.9 273.6c-0.2 0.6 8.9-5.1 8.9-5.1l3.9-5.9c0 0 3.7-2.4 6.4-3.8 2.7-1.3 7.7-9.3 7.7-9.3l-2-2.5c0 0-2.8 3.5-3.7 4-1 0.6-2.9 0.1-2.9 0.1 0 0 0.7-2.5 2.2-6 1.5-3.6 6.1-9.4 6.1-9.4l-1.7-1.8c0 0-2.8 2.6-3.8 3.9-1 1.3-2.9 4.1-2.9 4.1 0 0 2-4.9 3.2-6.7 1.3-1.8 2.6-4.2 2.6-4.2l-2-1.4c0 0-2.3 2.9-3.5 5-1.2 2.2-3.5 5.7-3.5 5.7 0 0 1.7-5.5 2.6-7 0.8-1.6 1.1-2.4 1.1-2.4l-2.3-0.8c0 0-1.8 2.1-2.8 5-1.1 2.8-1.8 4.1-1.8 4.1 0 0 0.7-4.6 1.4-6 0.8-1.4 0.9-1.9 0.9-1.9l-2-0.4c0 0-3.6 6.8-5.6 11-1.9 4.2-3.4 9.9-4.5 13-1.1 3-2.5 13.5-2.5 13.5z"/>
						<path id="&lt;Path&gt;" class="s2" d="m298.6 313.9l-46.6-8.1c0 0-1.3-11-0.5-23.8 0.8-14 2.5-17.9 2.5-17.9l-12.5-1.7c0 0-2.4 11-4.2 18.9-3.9 17.5-7.5 33.9-4.5 37.5 4.3 5.3 43.1 16.1 56.4 26.1 7.9 6 7.5-13.2 9.4-31z"/>
					</g>
					<path id="&lt;Path&gt;" class="s3" d="m364.6 446.3l-2.3 16.2 4.9 11 3.5-4.8 0.8-9 5.3 0.8 2.6-3.3-0.2-6.7-0.9-18.4z"/>
					<path id="&lt;Path&gt;" class="s2" d="m361.4 323.5c-3.6-1.3-15.3-0.4-15.3-0.4 0 0-1.1 12.5 3.6 22.1 4.8 9.7 16.6 44.9 18.1 48.2 1.5 3.3-3.2 52.9-3.2 52.9l17.2-3.5c0 0 8.2-38.3 8.1-48 0-9.7-9.1-46.2-15.6-57.8-6.5-11.6-4.2-10.3-12.9-13.5z"/>
					<path id="&lt;Path&gt;" class="s3" d="m333.2 287.7c0 0-3.8 16.5-0.8 20.3 1.7 2.3 9 10.3 9 10.3 0 0-24.2 12.8-31.4 12.8-7.1 0-4.6-14.3-4.6-14.3 0 0 7.8-6.1 8.9-9.2 1.2-3.1 1.8-12.1 1.8-12.1z"/>
					<g id="&lt;Group&gt;">
						<g id="&lt;Group&gt;">
							<path id="&lt;Path&gt;" class="s1" d="m336 288.3c0 0-0.3-6 4.8-5.9 3.2 0.1 3.4 3.1 0.9 6.9-1 1.6-1.1 5.2-2.4 6.4-1.6 1.4-3-0.8-3.4-1.8-0.8-1.6 0.1-5.6 0.1-5.6z"/>
						</g>
						<g id="&lt;Group&gt;">
							<path id="&lt;Path&gt;" class="s1" d="m308.9 288.3c0 0 0.3-6-4.8-5.9-3.2 0.1-3.5 3.1-0.9 6.9 1 1.6 1.1 5.2 2.4 6.4 1.6 1.4 3-0.8 3.4-1.8 0.8-1.6-0.1-5.6-0.1-5.6z"/>
						</g>
						<path id="&lt;Path&gt;" class="s1" d="m341.1 273.6c-0.1 1.9-0.5 3.2-1 6.1q-0.2 1-0.4 2.4c-1 7.2-2.3 17.1-2.9 18.5-0.9 2.5-6.1 6.4-8.6 7.8-2.4 1.5-8.6 1.2-11-0.3-2.5-1.4-8-5-8.9-7.5-0.6-1.5-2-11.6-3-18.9q-0.2-1.3-0.4-2.2c-0.5-2.9-0.9-4-1-5.9-0.3-6.1 6.5-15 18.6-15 14.4 0 19 8.9 18.6 15z"/>
						<path id="&lt;Path&gt;" class="s4" d="m310 265.9c0 0 10.3-4.6 22.2 0.8l4.3-2.7c0 0-6.3-3.3-15.2-3.2-9 0.1-11.3 5.1-11.3 5.1z"/>
						<g id="&lt;Group&gt;">
							<path id="&lt;Path&gt;" class="s5" d="m340.1 279.7q-0.2 1-0.4 2.4c-1 7.2-2.3 17.1-2.9 18.5-0.9 2.5-6.1 6.4-8.6 7.8-2.4 1.5-8.6 1.2-11-0.3-2.5-1.4-8-5-8.9-7.5-0.6-1.5-2-11.6-3-18.9q-0.2-1.3-0.4-2.2l1-1.5c0 0 1.8 10.5 4.5 13.7 2.8 3.3 3.3 3.4 3.3 3.4 0 0 3-0.7 5.6-1.3q0.2-0.1 0.4-0.2c2.2-0.5 4.4-0.5 6.5 0.1q0.2 0 0.4 0.1l0.4 0.1 4.2 1.2c0 0 1-0.1 3.7-3.4 2.8-3.2 4.1-13.7 4.1-13.7z"/>
						</g>
						<path id="&lt;Path&gt;" class="s5" d="m342 269.7c0 0.2-1 7.3-1.4 8.4-0.6 1.8-1.1 3-1.1 3l-0.7-1.6c-1.4-2.9-2.1-6.1-2.2-9.4l-0.1-6.1 2-1.8c4 0.6 4.4 2.9 3.5 7.5z"/>
						<path id="&lt;Path&gt;" class="s5" d="m310.2 264.3l-0.9 6.3c-0.5 2.9-1.5 5.7-3 8.3v0.1l-1.2 2c0 0-0.3-1.2-0.7-2.7-0.4-1.2-1.2-7.2-1.4-8q-0.1-0.4-0.2-0.8c-0.8-4.4 0-6.3 4-6.9z"/>
						<path id="&lt;Path&gt;" class="s5" d="m338.5 262.2l-2 1.8-3.9 1.4c-0.5-0.5-7.5-2.9-13.7-2.5-7.7 0.6-8.8 2.9-8.9 3q0 0 0 0l-0.8-0.2-3.8-0.8-0.8-0.2c0 0 0.9-3.3 1.5-4.3 3.1-4.6 11.4-7.6 18.9-6.8q0.4 0 0.8 0.1c7 0.9 10.3 4.2 10.3 4.2z"/>
					</g>
					<path id="&lt;Path&gt;" class="s6" d="m357.4 654v15.1h-29.1c0 0 1.1-5.5 14.9-8l2-7.1z"/>
					<path id="&lt;Path&gt;" class="s6" d="m313.2 654v15.1h-29.1c0 0 1.1-5.5 14.9-8l2-7.1z"/>
					<path id="&lt;Path&gt;" class="s6" d="m352.5 428.9c0 0 4.1 48.7 4.2 88.4 0.2 39.7 2.5 140.1 2.5 140.1h-16c0 0-16.6-96.4-22.6-121.9-6-25.6-21.6-106.2-21.6-106.2z"/>
					<path id="&lt;Path&gt;" class="s6" d="m317.6 481.2c0 0-3 60.5-3.6 72.4-0.6 11.9 0 103.8 0 103.8 0 0-15 0.4-15 0 0-0.4-14.2-97.8-16-127.2-1.9-29.4-0.8-64.2-3.2-68.2-2.5-4.1 6.6-32.9 6.6-32.9l21.2 5.6z"/>
					<path id="&lt;Path&gt;" class="s7" d="m311.1 311.3c0 0-6.7 15.2 3.3 16.8 16 2.7 20.8-17.7 20.8-17.7l17.6 9c0 0-0.3 109.5 6.6 142.9 4 19.4-62.7 10.1-72.5-7.1-8.5-14.9 16-138.7 16-138.7z"/>
					<path id="&lt;Path&gt;" class="s2" d="m339.4 312.3c-0.5 0.6-24.1 69.7-16.1 134.6 1.9 15.2 29.5 2.6 36.1 2.6 0 0 3.1-48.5 3.9-66.5 0.8-18-7.8-23.9-7-32.8 0.7-8.8 10.3-24.5 10.3-24.5z"/>
					<g id="&lt;Group&gt;">
						<path id="&lt;Path&gt;" class="s2" d="m300 453.8c2.7-45.2 3.8-139.7 3.8-139.7l-16-1.2c0 0-7.9 79.3-8.1 88.3 0 3.6 1.1 47.1-1.3 55.3 5.4 0.8 21.2 2.7 21.6-2.7z"/>
					</g>
				</g>
				<path id="&lt;Path&gt;" class="s8" d="m473.5 287.7c-12.5 4.3-25.4 8.8-35.3 17.5-9.9 8.7-16.3 22.8-12.2 35.4 4.2 12.5 21.7 19.8 31.7 11.3 3.7-3.1 5.9-8.4 4-12.7-3.9-8.6-17.3-4.6-23.6 2.4-7.4 8.3-12.1 19.6-10.3 30.6 1.8 11 11.4 20.9 22.6 20.9 11.1 0 27-16.8 17.5-22.6-12.2-7.3-27.7 10.1-33.7 22.9-5.9 12.9-2.2 30.3 10 37.5 12.1 7.2 40.7-1.9 33.2-14-7.9-12.6-31.3 5.7-34.4 20.3-3.1 14.6 8.4 30.6 23.2 32.4 14.9 1.8 40.6-15.1 30.3-25.9-14.8-15.7-39.6 24.3-32.4 44.6 7.1 20.4 36.6 28.6 53.2 14.7 3.1-2.6 5.9-6.3 5.3-10.3-0.9-6.7-10.1-8.6-16.5-6.5-16.7 5.6-24.2 29-13.9 43.2 10.3 14.3 34.8 14.6 45.4 0.5 2-2.7 3.6-6.2 2.9-9.5-1.1-4.7-6.6-7.3-11.3-6.4-4.7 0.9-8.5 4.4-11.2 8.4-9.5 14.1-6.3 35.3 7 45.9 13.3 10.6 34.6 9.2 46.3-3.2 3.1-3.2 5.6-7.5 4.8-11.9-0.9-5-6.3-8.4-11.4-8.3-5.2 0.2-9.9 3.1-13.4 6.8-15 15.5-8.6 45.5 11.4 53.6 19.9 8.1 59.5-14.2 45.5-30.5-9.3-10.9-27.8 12.7-25.4 26.9 2.3 14.1 18.6 23.8 32.5 20.2 14-3.7 32.3-23.6 21.5-33.2-7.6-6.8-19.9 7.5-22.2 17.4-2.4 9.9 2.9 21.1 12 25.6 9.9 4.8 21.9 1.9 31.4-3.6 9.4-5.5 17.3-13.4 26.4-19.5 18.2-12.3 41.6-16.6 63.1-11.8"/>
				<g id="&lt;Group&gt;">
					<path id="&lt;Path&gt;" class="s9" d="m1104.6 352.9c-20.2-13-200.8 139.3-194.2 259.5 0 0 35.1-47.4 65.8-70.6 30.6-23.1 33.6-47.3 33.6-71.3-0.1-24 45.7-14.1 50.9-40.7 9.1-47.1 62.1-65.3 43.9-76.9z"/>
					<g id="&lt;Group&gt;">
						<g id="&lt;Group&gt;">
							<path id="&lt;Path&gt;" class="s10" d="m1116.5 464.9c-29.2 17.7-20.6 41.2-37.8 55-12.5 10-33.4 4.8-43.8 18.4-11.7 15.3 1.6 36.5 2.6 55 1.4 25.6-21.4 44.7-44.6 52.5-26.9 9-61.7 6.2-76.5-20.6-17.4-31.5-4.3-79.2 26.2-94 7.4-3.6 16.8-4.6 22.8-11.9 10.2-12.3 3.7-30 8.4-45.6 4.6-15.3 19.7-26 33.6-30.8 13.9-4.7 28.1-5.7 41.7-11.2 18.4-7.5 34.6-24 50-35.2 13.8-9.9 62-28.5 69.9 4 7.1 29.7-28 49.6-52.5 64.4z"/>
						</g>
						<path id="&lt;Path&gt;" class="s11" d="m1119.5 417.4c0 0-119.3 60-214.4 253.3"/>
					</g>
					<path id="&lt;Path&gt;" class="s12" d="m1191.5 507.8c0 0-153.3-1.8-280.7 144.4"/>
					<g id="&lt;Group&gt;">
						<g id="&lt;Group&gt;">
							<path id="&lt;Path&gt;" class="s9" d="m1115.5 576.1c-14.6 5.9-18.6 30.5-34.3 33.6-11.5 2.3-23.7-7.8-34.9-2.6-12.6 6-10.4 23.7-15.5 35.8-7.1 16.7-28.3 21.4-46.1 18.8-20.7-3.1-42.9-16.2-44.3-38-1.7-25.7 21.9-51.7 46.8-51.2 6.1 0.1 12.6 2.6 18.9-0.1 10.7-4.4 11.9-17.8 19.9-26.2 7.9-8.2 21.3-10.1 32-8.6 10.7 1.5 20.4 5.5 31.2 6.5 14.6 1.2 30.5-4 44.2-6 12.3-1.9 62.3-0.9 45.1 25.3-11.8 18.1-43.6 4.9-63 12.7z"/>
						</g>
						<path id="&lt;Path&gt;" class="s11" d="m1147 552c0 0-106.5 9.1-230.4 100.8"/>
					</g>
					<path id="&lt;Path&gt;" class="s10" d="m799.9 666.5c0 0 24.3-42.4 28.2-46.8 25-27.6 58-27.9 91.7-20.9 9.7 2 35.5 15.5 44.9 13.7 7.3-1.5 16-29.2 39.4-27.8 23.3 1.5 24.7 29.2 24.7 29.2 0 0 14.6-32.2 38-29.2 23.3 3 23.3 24.7 5.8 40.8 0 0 37.2-11.2 73.3 6.1 36 17.3 18.8 40 18.8 40z"/>
				</g>
				<g id="&lt;Group&gt;">
					<path id="&lt;Path&gt;" class="s9" d="m151.4 352.9c20.2-13 200.8 139.3 194.2 259.5 0 0-35.1-47.4-65.8-70.6-30.6-23.1-33.6-47.3-33.6-71.3 0.1-24-45.7-14.1-50.9-40.7-9.1-47.1-62.1-65.3-43.9-76.9z"/>
					<g id="&lt;Group&gt;">
						<g id="&lt;Group&gt;">
							<path id="&lt;Path&gt;" class="s10" d="m139.5 464.9c29.2 17.7 20.6 41.2 37.8 55 12.5 10 33.4 4.8 43.8 18.4 11.7 15.3-1.6 36.5-2.6 55-1.4 25.6 21.4 44.7 44.6 52.5 26.9 9 61.7 6.2 76.5-20.6 17.4-31.5 4.3-79.2-26.2-94-7.4-3.6-16.8-4.6-22.8-11.9-10.2-12.3-3.7-30-8.4-45.6-4.6-15.3-19.7-26-33.6-30.8-13.9-4.7-28.1-5.7-41.7-11.2-18.4-7.5-34.6-24-50-35.2-13.8-9.9-62-28.5-69.9 4-7.1 29.7 28 49.6 52.5 64.4z"/>
						</g>
						<path id="&lt;Path&gt;" class="s11" d="m136.5 417.4c0 0 119.3 60 214.4 253.3"/>
					</g>
					<path id="&lt;Path&gt;" class="s12" d="m64.5 507.8c0 0 153.3-1.8 280.7 144.4"/>
					<g id="&lt;Group&gt;">
						<g id="&lt;Group&gt;">
							<path id="&lt;Path&gt;" class="s9" d="m140.5 576.1c14.6 5.9 18.6 30.5 34.3 33.6 11.5 2.3 23.7-7.8 34.9-2.6 12.6 6 10.4 23.7 15.5 35.8 7.1 16.7 28.3 21.4 46.1 18.8 20.7-3.1 42.9-16.2 44.3-38 1.7-25.7-21.9-51.7-46.8-51.2-6.1 0.1-12.6 2.6-18.9-0.1-10.7-4.4-11.9-17.8-19.9-26.2-7.9-8.2-21.3-10.1-32-8.6-10.7 1.5-20.4 5.5-31.2 6.5-14.6 1.2-30.5-4-44.2-6-12.3-1.9-62.3-0.9-45.1 25.3 11.8 18.1 43.6 4.9 63 12.7z"/>
						</g>
						<path id="&lt;Path&gt;" class="s11" d="m109 552c0 0 106.5 9.1 230.4 100.8"/>
					</g>
					<path id="&lt;Path&gt;" class="s10" d="m456.1 666.5c0 0-24.3-42.4-28.2-46.8-25-27.6-58-27.9-91.7-20.9-9.7 2-35.5 15.5-44.9 13.7-7.3-1.5-16-29.2-39.4-27.8-23.3 1.5-24.7 29.2-24.7 29.2 0 0-14.6-32.2-38-29.2-23.3 3-23.3 24.7-5.8 40.8 0 0-37.2-11.2-73.3 6.1-36 17.3-18.8 40-18.8 40z"/>
				</g>
				<g id="&lt;Group&gt;">
					<g id="&lt;Group&gt;">
						<g id="&lt;Group&gt;">
							<path id="&lt;Path&gt;" class="s13" d="m717.2 670.2h-37.7c-4.1 0-7.6-3.2-7.9-7.3l-2.5-29.8h58.6l-2.5 29.8c-0.3 4.1-3.8 7.3-8 7.3z"/>
						</g>
						<g id="&lt;Group&gt;">
							<path id="&lt;Path&gt;" class="s13" d="m940 670.2h-37.8c-4.1 0-7.6-3.2-7.9-7.3l-2.5-29.8h58.6l-2.5 29.8c-0.3 4.1-3.8 7.3-7.9 7.3z"/>
						</g>
					</g>
					<path id="&lt;Path&gt;" class="s14" d="m946.5 594h-273.5l19.3-141c1.5-11 10.9-19.2 22-19.2h190.8c11.1 0 20.5 8.2 22 19.2z"/>
					<path id="&lt;Path&gt;" class="s14" d="m909.6 566.7h-199.7l14.2-141.7c1-10.5 9.9-18.5 20.5-18.5h130.3c10.6 0 19.4 8 20.5 18.5z"/>
					<path id="&lt;Path&gt;" class="s15" d="m677.4 562l-4.4 32h273.5l-4.4-32z"/>
					<path id="&lt;Path&gt;" class="s14" d="m976.1 648.7h-332.7l6.1-72.3h320.4z"/>
					<g id="&lt;Group&gt;">
						<path id="&lt;Path&gt;" class="s15" d="m866.2 471.8c12.6 31.2-2.5 66.7-33.7 79.3-31.2 12.5-66.6-2.6-79.2-33.7-12.6-31.2 2.5-66.7 33.7-79.2 31.2-12.6 66.6 2.5 79.2 33.6z"/>
						<path id="&lt;Path&gt;" class="s7" d="m858.6 474.9c10.8 27-2.2 57.6-29.2 68.5-26.9 10.9-57.6-2.2-68.5-29.1-10.8-27 2.2-57.6 29.2-68.5 26.9-10.9 57.6 2.2 68.5 29.1z"/>
						<g id="&lt;Group&gt;">
							<g id="&lt;Group&gt;">
								<path id="&lt;Path&gt;" class="s16" d="m824.4 537.9c-1.8 0-3.5-0.7-4.8-2q-0.5-0.5-0.8-1.1-0.4-0.5-0.7-1.1-0.2-0.6-0.4-1.3-0.1-0.7-0.1-1.3c0-1.8 0.7-3.6 2-4.9 1.6-1.5 4-2.3 6.2-1.8q0.6 0.1 1.2 0.4 0.7 0.2 1.2 0.6 0.6 0.4 1.1 0.8c1.2 1.3 2 3.1 2 4.9q0 0.6-0.2 1.3-0.1 0.7-0.3 1.3-0.3 0.6-0.7 1.1-0.4 0.6-0.8 1.1-0.5 0.5-1.1 0.8-0.5 0.4-1.2 0.7-0.6 0.2-1.2 0.4-0.7 0.1-1.4 0.1z"/>
							</g>
							<g id="&lt;Group&gt;">
								<path id="&lt;Compound Path&gt;" class="s16" d="m803.3 540.3c-3.8-0.5-6.4-4-5.8-7.7 0.5-3.8 4-6.4 7.7-5.8 3.7 0.5 6.3 4 5.8 7.7-0.5 3.4-3.4 5.9-6.8 5.9q-0.4 0-0.9-0.1zm-22-9.3c-3-2.4-3.5-6.7-1.2-9.6 2.4-3 6.6-3.5 9.6-1.2 3 2.3 3.5 6.6 1.2 9.6-1.4 1.7-3.4 2.6-5.4 2.6-1.5 0-2.9-0.5-4.2-1.4zm-14.3-19.1c-1.5-3.5 0.2-7.5 3.7-8.9 3.5-1.4 7.5 0.3 8.9 3.8 1.4 3.4-0.3 7.4-3.8 8.9q-1.2 0.4-2.5 0.4c-2.7 0-5.3-1.6-6.3-4.2zm2.8-16c-3.7-0.5-6.3-4-5.8-7.7 0.6-3.8 4-6.4 7.8-5.8 3.7 0.5 6.3 4 5.8 7.7-0.5 3.4-3.4 5.9-6.8 5.9q-0.5 0-1-0.1zm4.8-20.1c-3-2.3-3.6-6.6-1.2-9.6 2.3-3 6.6-3.5 9.5-1.2 3 2.3 3.6 6.6 1.2 9.6-1.3 1.7-3.3 2.6-5.4 2.6-1.4 0-2.9-0.4-4.1-1.4zm55.1-6.8c-3-2.3-3.5-6.6-1.2-9.6 2.3-3 6.6-3.5 9.6-1.2 3 2.3 3.5 6.6 1.2 9.6-1.3 1.7-3.4 2.6-5.4 2.6-1.5 0-2.9-0.4-4.2-1.4zm-41-8.3c-1.5-3.5 0.2-7.5 3.7-8.9 3.5-1.4 7.5 0.3 8.9 3.8 1.4 3.5-0.2 7.5-3.8 8.9-0.8 0.3-1.7 0.5-2.5 0.5-2.7 0-5.3-1.6-6.3-4.3zm25.5 1.7c-3.7-0.5-6.3-3.9-5.8-7.7 0.6-3.7 4-6.3 7.7-5.8 3.8 0.5 6.4 4 5.9 7.7-0.5 3.4-3.5 5.9-6.8 5.9q-0.5 0-1-0.1z"/>
							</g>
							<g id="&lt;Group&gt;">
								<path id="&lt;Path&gt;" class="s16" d="m846.2 486.7q-0.7 0-1.3-0.1-0.7-0.1-1.3-0.4-0.6-0.3-1.2-0.6-0.6-0.4-1-0.9c-1.3-1.2-2-3-2-4.8q0-0.7 0.1-1.3 0.1-0.7 0.4-1.3 0.2-0.6 0.6-1.2 0.4-0.6 0.9-1c0.3-0.3 0.6-0.6 1-0.9q0.6-0.4 1.2-0.6 0.6-0.3 1.3-0.4c2.2-0.4 4.5 0.3 6.1 1.9q0.5 0.4 0.9 1 0.3 0.6 0.6 1.2 0.3 0.6 0.4 1.3 0.1 0.6 0.1 1.3c0 1.8-0.7 3.6-2 4.8-1.3 1.3-3 2-4.8 2z"/>
							</g>
						</g>
					</g>
				</g>
				<g id="&lt;Group&gt;">
					<path id="&lt;Path&gt;" class="s17" d="m731.3 272.9c0 0-7.3-15.6 5.8-30.5 0 0 49.5 32 104.8 23 0 0 6.1 16.7-10.9 32.1 0 0-59.2 11.3-99.7-24.6z"/>
					<path id="&lt;Path&gt;" class="s14" d="m816 201.9c-35.6-30-103.1-34.3-188.5-20.5-73.4 11.8-148.2 39.6-173.2 78.7-11.4 17.9-3.6 67.4-3.6 67.4 67.6 4.3 92.4-53.9 92.4-53.9 0 0-4.5-16.5 10.6-23.8 53-25.5 135.3-34.2 165.9-26.7 16.3 4 17.5 19.3 17.5 19.3 0 0 41.8 47.4 104.7 22.2 0 0-9.6-49.1-25.8-62.7z"/>
					<path id="&lt;Path&gt;" class="s17" d="m556.9 300.2c0 0 2-17.1-15.1-27.2 0 0-37 46-92.3 54.8 0 0-0.6 17.7 20.4 27.1 0 0 59.8-8 87-54.7z"/>
				</g>
				<g id="&lt;Clip Group&gt;" clip-path="url(#cp1)">
					<path id="&lt;Path&gt;" class="s18" d="m543.4 669.9h-267.7c-15.8 0-28.5-12.8-28.5-28.5v-157.4c0-15.7 12.7-28.5 28.5-28.5h267.7c15.7 0 28.4 12.8 28.4 28.5v157.4c0 15.7-12.7 28.5-28.4 28.5z"/>
					<path id="&lt;Path&gt;" class="s19" d="m571.8 484c0-15.7-12.7-28.5-28.4-28.5h-267.7c-15.8 0-28.5 12.8-28.5 28.5l147.2 119.3c8.7 7.1 21.1 7.1 29.9 0z"/>
					<path id="&lt;Path&gt;" class="s20" d="m266.2 647.7v-157.4c0-15.7 12.7-28.4 28.4-28.4h266.4c-4.8-3.9-10.9-6.4-17.6-6.4h-267.7c-15.8 0-28.5 12.8-28.5 28.5v157.4c0 15.7 12.7 28.5 28.5 28.5h1.2c-6.5-5.3-10.7-13.2-10.7-22.2z"/>
					<path id="&lt;Path&gt;" class="s21" d="m391.6 582.6l-144.4-127.1h324.6l-144.4 127.1c-10.2 9-25.6 9-35.8 0z"/>
					<path id="&lt;Path&gt;" class="s22" d="m391.6 582.6l-144.4-127.1h324.6l-144.4 127.1c-10.2 9-25.6 9-35.8 0z"/>
				</g>
				<g id="&lt;Group&gt;">
					<g id="&lt;Group&gt;">
						<path id="&lt;Path&gt;" class="s3" d="m668.9 325.9c0 0 9.3-26.7 9.9-29.6 3.9-17.3 4.9-54.9 4.7-62.9-0.3-8-1-15-1.2-16.1-0.1-1-5.1-6.4-5.1-6.3 0 0.1-1.6 0.2-1.6 0.2v1l-2.2-1.9-1.7-0.1-0.2 0.9-2.6-1.3h-2.4c0 0 1.6 5.1 2.5 8.2 0.9 3-0.1 3.3-0.1 3.3 0 0-2 0.7-2.7 0.5-0.8-0.2-3.5-0.1-3.5-0.1 0 0 7.4 9.7 7.8 10.6 0.3 0.9 4.6 5.3 3 14-2.9 15.6-10.6 38.8-10.6 38.8 0.2-0.5-10.1 28.8-10.1 28.8z"/>
						<path id="&lt;Path&gt;" class="s2" d="m664 361.2c2.8-22.5 14.3-48.7 14.3-48.7 0 0-17.5-3.4-22.1-9.7 0 0-6 14.8-9.5 22.1-3.8 8.2-9.2 17-2.4 21.8 6.5 4.7 18.7 22.3 19.7 14.5z"/>
					</g>
					<path id="&lt;Path&gt;" class="s6" d="m596.7 655.7v14.4h27.8c0 0-1.1-5.2-14.2-7.6l-2-6.8z"/>
					<path id="&lt;Path&gt;" class="s6" d="m638.9 655.7v14.4h27.7c0 0-1-5.2-14.2-7.6l-1.9-6.8z"/>
					<path id="&lt;Path&gt;" class="s6" d="m601.4 440.9c0 0-3.9 40.4-4 78.2-0.2 37.9-2.4 139.9-2.4 139.9h15.3c0 0 15.8-98.2 21.5-122.5 5.7-24.4 20.6-95.1 20.6-95.1z"/>
					<path id="&lt;Path&gt;" class="s3" d="m624.9 307.3c0 0-1 7.7-1.8 11.6-0.8 3.9-1.5 6-2.1 7.2-1.3 2.6-9.4 10.7-9.4 10.7 0 0 25.3 13.4 32.8 13.4 7.4 0 4.8-14.9 4.8-14.9 0 0-8.1-6.5-9.3-9.7-1.2-3.3-1.9-12.7-1.9-12.7z"/>
					<path id="&lt;Path&gt;" class="s6" d="m634.7 484.7c0 0 2.8 63.9 3.4 75.2 0.6 11.4 0 99 0 99 0 0 14.3 0.4 14.3 0 0-0.4 13.6-99.4 15.3-127.4 1.8-28.1 0.7-61.3 3.1-65.1 2.3-3.9-6.3-25.3-6.3-25.3l-20.3-0.7z"/>
					<path id="&lt;Path&gt;" class="s2" d="m616.7 329.3c0 0-21.4-8.6-24.9-1.5-2.7 5.3-0.4 39.6 0.8 49.1 1 8.4 6.8 78.5 6.8 78.5 0 0 8 12.4 46.5 7.4 14.9-1.9 22.2-9.1 22.2-9.1 0 0-4.2-83.7-5.3-92-1.2-8.4-5.2-21.5-5.2-21.5l-11.4-7.6c0 0 3.6 8.1-6.7 10.4-20.9 4.6-22.8-13.7-22.8-13.7z"/>
					<path id="&lt;Path&gt;" class="s3" d="m645.2 278.1c2.4 1 6.7 3.2 7.1 5.2 0.5 2 2.2 7.9 2.5 11.5 0.2 3.5 0.7 10.2 0.7 14.4 0 4.2-2.6 12.7-3.5 13.6-1 0.9-8 2.4-10.4 1.7-2.4-0.7-16.4-7.9-17.2-16.8 0 0-2.5 1.3-7.1-6.1-1.2-1.9 2.9-16.2 3.5-18.7 1.3-6.2 16.6-1.4 20-2.3 3.5-1 4.4-2.5 4.4-2.5z"/>
					<path id="&lt;Path&gt;" class="s6" d="m652.3 283.3c0 0-10.7 6.7-14.9 7-4.1 0.4-10.3 6.1-10.2 7.9 0.2 1.8-1.7 3-1.7 3 0 0-2.6-4.1-4.8-3.7-4.2 0.9-1.7 6.1 0.6 7.2 2.3 1.2 4.5 1.9 4.5 1.9 0 0 0.4 2.4 0.2 4.4-0.2 2-1.8 5.3-1.8 5.3 0 0-4.9-10.5-9.3-14.3-10.6-9.3-3-26.4 7.4-29.7 4.2-1.3 15.7-2.1 21.3 0.4 7.5 3.3 8.7 10.6 8.7 10.6z"/>
					<g id="&lt;Group&gt;">
						<g id="&lt;Group&gt;">
							<path id="&lt;Compound Path&gt;" fill-rule="evenodd" class="s13" d="m634.5 294.5c2.1-0.4 7.8-1.4 9.2-1 1.3 0.4 1.4 0.9 2 0.8 0.6-0.1 0.5-0.6 1.7-1.5 1.1-0.8 2.6-0.8 4.8-1.2 1-0.2 2.1-0.4 2.9-0.3 0.6 0 0.7 0.8 0.8 2.1 0.1 1.3 0 3-0.3 4.7-0.3 1.9-1 2.6-3.4 3-3.6 0.5-3.9-2.6-4.6-3.9-0.7-1.2-1-1.3-1.6-1.2-0.5 0.1-0.8 0.3-1 1.7-0.3 1.4 0.2 4.3-3.2 5.4-4.5 1.5-6.8 0.8-8.3-1.3-1.9-3-1.7-3.1-2.2-3.3-0.2 0-1.2-0.1-1.4-0.5l-5.9 1.2c-0.8-0.9-1.6-1.3-1.6-1.3 0 0 1.7-1.3 3.5-1.7 3.7-0.8 6-1.1 6-1.1 0.8-0.3 1.8-0.5 2.6-0.6zm14.6 3.6c0.6 1.6 1.2 2.8 3.5 2.4 2.1-0.4 2.4-1.9 2.5-3.1 0.3-2.1-0.1-3.8-0.6-4.2-0.6-0.4-0.9-0.5-3.5 0.1-2.6 0.6-2.7 0.5-2.8 1.5 0 0.4 0.2 1.7 0.9 3.3zm-15.4 2.5c1.2 2.2 2.7 3 5.6 2.4 4.2-0.7 4.5-2.2 4.6-3.9 0-1.8-0.2-3.1-0.4-3.5-0.4-0.9-1.3-0.8-4-0.5-2.7 0.4-6.2 0.8-6.6 1.4-0.3 0.6-0.2 2.2 0.8 4.1z"/>
						</g>
					</g>
					<g id="&lt;Group&gt;">
						<path id="&lt;Path&gt;" class="s3" d="m577.9 328.3c0 0-5.1-32.1-5.2-35.1-0.2-17.7 8.7-41.6 10.6-49.3 1.8-7.8 3-6.6 3.4-7.6 0.4-1 13.2-3 13.2-3 0 0 3.5-1.4 4.3-1.5 0.8-0.1 4.2-1.1 4.2-1.1l-1.9 3.5c0 0-8.1 6.1-8.6 7-0.5 0.8-5.6 4.3-5.7 13.1-0.4 15.9-0.3 33.1-0.3 33.1-0.1-0.6 7.6 32.9 7.6 32.9z"/>
						<path id="&lt;Path&gt;" class="s2" d="m592.6 376.9c-5.5-15.4-17.9-57-17.9-57 0 0 18.5-4.7 23.7-10.3 0 0 6.3 18.6 8.9 26.3 2.9 8.5 7.2 17.9-0.1 21.9-7.1 3.9-12 26.6-14.6 19.1z"/>
					</g>
				</g>
				<g id="&lt;Group&gt;">
					<g id="&lt;Group&gt;">
						<path id="&lt;Path&gt;" class="s23" d="m951.2 402.9c4.8 4.4 8.2 2.9 15.4 27.7 4.6 15.8 21.5 95.5 21.5 95.5l-10.1 4.4c-13.6-38.1-13.6-38.1-29.5-69-7.7-15-10.9-29.8-10.9-29.8l-29.4-1.8c-18.4-7.5-12.1-34.3-12.1-34.3 0 0 50.2 2.8 55.1 7.3z"/>
						<path id="&lt;Path&gt;" class="s24" d="m839.8 379.2l26.6-17 25.6 19.9 32 10.3q-0.1 0-0.2 0.1c12.8 4.5 27.5 11 32 15.2 4.8 4.5 14.3 10.8 6.7 35.4-4.9 15.8-26.2 95.4-26.2 95.4l-10.8-1.9c0 0 3.8-46.2 7.6-80.7 1.9-16.7 2.5-21.4 2.5-21.4 0 0-71.3 7.8-94.3-4.4-16.1-8.5-1.5-38.1-1.5-50.9z"/>
						<path id="&lt;Path&gt;" class="s6" d="m937 532.8c0 0-0.3 2.9-4.9 4.2-4.7 1.3-7.9-2.6-7.9-2.6l-1 9.5 14.9 10.5h12.3l-6.7-7.4z"/>
						<path id="&lt;Path&gt;" class="s6" d="m986.5 519.6c0 0 2.2 4.1-1.9 6.8-4 2.6-8.2-0.1-8.2-0.1l1.9 9.4 35.1-11z"/>
					</g>
					<g id="&lt;Group&gt;">
						<path id="&lt;Path&gt;" class="s3" d="m946.1 283.6c0 0.5-5.8-6.9-5.8-6.9l-1.3-6.1c0 0-2.4-3.2-4.2-5.1-1.9-1.9-3.5-10.1-3.5-10.1l2.4-1.4c0 0 1.3 3.7 1.9 4.4 0.6 0.8 2.3 1 2.3 1 0 0 0.2-2.3 0-5.7-0.1-3.4-2.1-9.6-2.1-9.6l2-1c0 0 1.4 3.1 1.8 4.4 0.5 1.4 1.2 4.3 1.2 4.3 0 0-0.2-4.6-0.6-6.5-0.5-1.9-0.8-4.3-0.8-4.3l2.1-0.5c0 0 1 3 1.3 5.2 0.4 2.1 1.1 5.8 1.1 5.8 0 0 0.3-5.1 0.1-6.6-0.2-1.6-0.2-2.4-0.2-2.4l2.2 0.1c0 0 0.8 2.3 0.7 5 0 2.7 0.3 3.9 0.3 3.9 0 0 0.8-4 0.6-5.4-0.2-1.3-0.1-1.8-0.1-1.8l1.7 0.3c0 0 1 6.7 1.3 10.8 0.3 4.1-0.2 9.2-0.3 12.1 0 2.9-0.1 5.1-0.1 5.1z"/>
						<path id="&lt;Path&gt;" class="s3" d="m901.2 291.5c13.7 11.2 27.4 19.5 27.4 19.5 0 0 5-12.7 7.5-21.8 2.9-10.8 3.7-15.8 3.7-15.8l10.3-0.8c0 0-3.2 27.6-7.3 46.3-3.9 18.2-8.9 15-13.3 14.1-4.3-0.9-45.4-23-45.4-23l4.4-23.4c0 0 2.9-3.2 12.7 4.9z"/>
						<path id="&lt;Path&gt;" class="s25" d="m857.8 225.2c2.2-1.3 12.8-2.1 19.5 1.9 12.7 7.9 6.6 29.3 5.8 34.2-0.8 5 3.7 13.9 3.7 19.7-0.1 5.9-1.5 8.1-5.9 13.8-1.3 1.7-1.7 4.5-1.7 4.5 0 0-4.8-7.2-5.9-17.4-1-10.1-3.2-7.7-8.2-18.9-5.1-11.1-5.3-27.9-5.3-27.9z"/>
						<path id="&lt;Path&gt;" class="s25" d="m868.4 232.4l-10.6-7.2c0 0-9-1.2-14.2 6.8-5.3 8-7.1 19.6-8.3 28.4-1.2 8.7-4.2 25.1-4 31.6 0.2 6.6 8.1 7.4 8.1 7.4l26.5-11.4c0 0-3.1-14-0.2-28.9 2.9-14.8 2.7-26.7 2.7-26.7z"/>
						<path id="&lt;Path&gt;" class="s3" d="m877.2 234.7c0.6 3.3 3.1 13 3.4 19.2 0.2 6.2-0.5 16.5-4.6 19.3-4.1 2.8-11.9 0.6-17.5-1.8-5.7-2.3-7.1-6.3-8.2-10-1.1-3.6-0.7-13.3 0.6-20.2 1.3-7 5.7-9.8 10.8-10.8 5.1-0.9 15.5 4.3 15.5 4.3z"/>
						<path id="&lt;Path&gt;" class="s3" d="m854.1 257.8c0 0 1.4 15.5-1.8 22.8-2.3 5-11.4 7.1-11.4 7.1 0 0-0.3 13.9 8.8 27.3 9.1 13.5 37.7 18.4 37.7 18.4 0 0 5.5-11.2 8.5-23.7 2.9-12.6-5-22.3-5-22.3 0 0-7.7-2.5-11.4-3.9-9-3.4-8-17.7-8-17.7z"/>
						<path id="&lt;Path&gt;" class="s2" d="m871.4 293.7c0 0-18.4-4.7-24-8.3l-18.3 10.8c0 0-10.7 10.3 7.6 37.3 0 0 7 24.5-4.3 67.8 0 0 3 11.1 20.2 5.2 14.7-5.1 15.1-9.1 28-12.4 19.1-4.8 24.1-7.8 24.1-7.8-10-15.1-8.3-38.6-8.3-38.6 0 0 11.4-10.9 6.5-22-7-16-9.4-38.7-9.4-38.7l-9.8-2.5c0 0-5.2 6.4-7.8 8.3-2.6 2-4.5 0.9-4.5 0.9z"/>
						<path id="&lt;Path&gt;" class="s7" d="m879.5 283.5c0 0-2.3 8.3-8.1 10.2 0 0 2.3 11.4 7.7 9.4 7.6-2.8 4.6-18.6 4.6-18.6z"/>
						<path id="&lt;Path&gt;" class="s7" d="m845.2 284c0 0 3.6 17.5 13.3 18.9 9.7 1.4 12.9-9.2 12.9-9.2 0 0-20.5-6-22.5-12.3z"/>
						<path id="&lt;Path&gt;" class="s25" d="m862.2 230.3c-1.7 0.1-3.1 8.5-3.2 13.2-0.2 4.7-7.2 8.4-4.1 18.8 3.1 10.3 2.6 20.3 6.8 31.6 4.2 11.4-1 15.5-3.3 19.4 0 0-8.9-9.7-11.9-14.6-4.8-7.9-12.7-5.7-12.7-5.7 0 0 13.6-26.5 13.1-33.6-0.5-7.1-1.7-18 4-24.5 5.6-6.5 11.3-4.6 11.3-4.6z"/>
						<path id="&lt;Path&gt;" class="s3" d="m855.1 251.4c0 0-3.8-4.2-6.3-3.5-2.5 0.6-2.7 4.4-0.8 7.4 2 3.1 9 4.8 9 4.8z"/>
						<path id="&lt;Path&gt;" class="s25" d="m863.7 243.3c3.4 0.3 5.4-0.2 10.7-0.8 6.9-0.7 9.8 1 9.8 1l-2.6-11.4c0 0-8-4.4-13.7-4.4-7.2 0.1-13.5 2.8-10 5.2 3.8 2.4 5.8 10.4 5.8 10.4z"/>
						<g id="&lt;Group&gt;">
							<path id="&lt;Path&gt;" class="s3" d="m844.7 309c-1.3 14.3-5.5 55.1-5.5 55.1 13.1 11.4 31.5 30.4 31.5 30.4 0 0-5.3 10.3-7.5 8.6-18-14.1-38.5-22.4-39.9-32.1-2.4-16.1-3.3-56.4 2.6-69.6 4.6-10.1 20.1-7.6 18.8 7.6z"/>
							<path id="&lt;Path&gt;" class="s3" d="m878.6 395.7c5.4 2.1 8.9 4.1 8.6 6.1-0.3 1.4-4.9-1.1-7.7-1 0.9 1.9 3.4 4.9 6.6 6.5 3.6 1.7 5.6 4.2 3.7 6.3-1.9 2.1-5.5 5-7.8 3.9-2.3-1.1-10.6-6.8-13.7-8.4-3.1-1.6-4.3-5.5-5.9-6.6-1.6-1 2.9-9.2 2.9-9.2 0.9 0.2 5.4 1.2 5.4 1.2 0 0 3.5 0.5 4.4 0.4 1-0.2 3.5 0.8 3.5 0.8z"/>
						</g>
					</g>
				</g>
				<path id="&lt;Path&gt;" class="s11" d="m18.5 669.1h1219"/>
			</g>
		</g>
	</g>
</svg>