<svg version="1.2" xmlns="http://www.w3.org/2000/svg" viewBox="0 0 1200 1000" width="1200" height="1000">
	<title>5095450</title>
	<style>
		tspan { white-space:pre } 
		.s0 { fill: #ffffff } 
		.s1 { fill: #c2c6d6 } 
		.s2 { fill: #9298ad } 
		.s3 { fill: #a7acc4 } 
		.s4 { fill: #deb1b6 } 
		.s5 { fill: #6a76e3 } 
		.s6 { fill: #7e8bfa } 
		.s7 { fill: #8c98fa } 
		.s8 { fill: #dddfe6 } 
		.s9 { fill: #ea4053 } 
		.s10 { fill: #fea530 } 
		.s11 { fill: #fec230 } 
		.s12 { fill: #fa5d6e } 
		.t13 { font-size: 9px;fill: #ffffff;font-weight: 700;font-family: "Rubik-Bold", "Rubik" } 
		.s14 { fill: #2a304a } 
		.s15 { fill: #373d59 } 
		.s16 { fill: #3f4870 } 
		.s17 { fill: #525b83 } 
		.s18 { fill: #666e91 } 
		.s19 { fill: #4e5bcf } 
		.s20 { fill: #f29d8f } 
		.s21 { fill: #feb6aa } 
		.s22 { fill: #b51f2f } 
		.s23 { fill: #bd2b3b } 
		.s24 { fill: #492934 } 
		.s25 { fill: #331e25 } 
		.s26 { fill: #55333f } 
		.s27 { fill: #e88676 } 
		.s28 { fill: #fb305b } 
		.s29 { fill: #ff4f74 } 
		.s30 { fill: #f7e5e4 } 
		.s31 { fill: #4f569c } 
		.s32 { fill: #5a67d6 } 
		.s33 { fill: #f75265 } 
		.s34 { fill: #8f9afa } 
		.s35 { fill: #343b57 } 
		.s36 { fill: #252c45 } 
		.s37 { fill: #929efb } 
		.s38 { fill: #8a97fb } 
		.s39 { fill: #bf6f61 } 
		.s40 { fill: #828a9c } 
		.s41 { fill: #9ba0ad } 
		.s42 { fill: #656d8f } 
		.s43 { fill: #5c658a } 
		.s44 { fill: #373f69 } 
		.s45 { fill: #21263b } 
		.s46 { fill: #ede4e7 } 
		.s47 { fill: #ebdfe3 } 
		.s48 { fill: #dec8ce } 
	</style>
	<g id="BACKGROUND">
		<g id="&lt;Group&gt;">
			<path id="&lt;Path&gt;" class="s0" d="m1200 1000h-1200v-1000h1200z"/>
		</g>
	</g>
	<g id="OBJECT">
		<g id="&lt;Group&gt;">
			<g id="&lt;Group&gt;">
				<path id="&lt;Path&gt;" class="s1" d="m1097.6 577.8c0 111.7-37 214.8-99.5 297.7q-11.6 15.4-24.5 30h-741.9q-12.9-14.6-24.6-30c-62.4-82.9-99.4-186-99.4-297.7 0-189.1 105.9-353.4 261.8-436.7q3-1.7 6-3.2c41.7-21.6 86.8-37.4 134.2-46.4q3-0.6 6-1.1c28.2-5 57.3-7.6 86.9-7.6 273.4 0 495 221.6 495 495z"/>
			</g>
			<g id="&lt;Group&gt;">
				<g id="&lt;Group&gt;">
					<g id="&lt;Group&gt;">
						<path id="&lt;Path&gt;" class="s1" d="m941.9 355.4c0 26.6-21.6 48.3-48.2 48.3-26.6 0-48.3-21.7-48.3-48.3 0-26.6 21.7-48.2 48.3-48.2 26.6 0 48.2 21.6 48.2 48.2z"/>
					</g>
					<g id="&lt;Group&gt;">
						<g id="&lt;Group&gt;">
							<path id="&lt;Path&gt;" class="s2" d="m893.7 315.1c-1.4 0-2.5-1.1-2.5-2.5v-4.9c0-1.3 1.1-2.4 2.5-2.4 1.3 0 2.4 1.1 2.4 2.4v4.9c0 1.4-1.1 2.5-2.4 2.5z"/>
						</g>
						<g id="&lt;Group&gt;">
							<path id="&lt;Path&gt;" class="s2" d="m893.7 395.8c-1.4 0-2.5 1.1-2.5 2.4v4.9c0 1.4 1.1 2.5 2.5 2.5 1.3 0 2.4-1.1 2.4-2.5v-4.9c0-1.3-1.1-2.4-2.4-2.4z"/>
						</g>
						<g id="&lt;Group&gt;">
							<path id="&lt;Path&gt;" class="s2" d="m934 355.4c0-1.3 1.1-2.4 2.5-2.4h4.9c1.3 0 2.4 1.1 2.4 2.4 0 1.4-1.1 2.5-2.4 2.5h-4.9c-1.4 0-2.5-1.1-2.5-2.5z"/>
						</g>
						<g id="&lt;Group&gt;">
							<path id="&lt;Path&gt;" class="s2" d="m853.3 355.4c0-1.3-1.1-2.4-2.4-2.4h-4.9c-1.4 0-2.5 1.1-2.5 2.4 0 1.4 1.1 2.5 2.5 2.5h4.9c1.3 0 2.4-1.1 2.4-2.5z"/>
						</g>
					</g>
					<g id="&lt;Group&gt;">
						<path id="&lt;Compound Path&gt;" fill-rule="evenodd" class="s2" d="m956.3 355.4c0 34.6-28 62.7-62.6 62.7-34.6 0-62.7-28.1-62.7-62.7 0-34.6 28.1-62.6 62.7-62.6 34.6 0 62.6 28 62.6 62.6zm-14.4 0c0-26.6-21.6-48.2-48.2-48.2-26.6 0-48.3 21.6-48.3 48.2 0 26.6 21.7 48.3 48.3 48.3 26.6 0 48.2-21.7 48.2-48.3z"/>
					</g>
					<g id="&lt;Group&gt;">
						<path id="&lt;Path&gt;" class="s2" d="m912.6 371.1c-0.7 0-1.4-0.2-2-0.5l-18.6-12.2c-1-0.7-1.6-1.8-1.6-3v-30.1c0-2 1.6-3.5 3.5-3.5 2 0 3.6 1.5 3.6 3.5v28.2l17 11.2c1.6 1 2.1 3.2 1 4.8-0.7 1.1-1.8 1.6-2.9 1.6z"/>
					</g>
					<g id="&lt;Group&gt;">
						<path id="&lt;Path&gt;" class="s2" d="m893.9 350.6c-2.6 0-4.8 2.2-4.8 4.8 0 2.7 2.2 4.9 4.8 4.9 2.7 0 4.9-2.2 4.9-4.9 0-2.6-2.2-4.8-4.9-4.8z"/>
					</g>
				</g>
				<g id="&lt;Group&gt;">
					<g id="&lt;Group&gt;">
						<path id="&lt;Compound Path&gt;" fill-rule="evenodd" class="s2" d="m1033.6 496.6v161c0 7.6-6.2 13.7-13.7 13.7h-119.2c-7.6 0-13.7-6.1-13.7-13.7v-161c0-7.5 6.1-13.7 13.7-13.7h119.2c7.5 0 13.7 6.2 13.7 13.7zm-13.7 0h-119.2v161h119.2z"/>
					</g>
					<g id="&lt;Group&gt;">
						<path id="&lt;Path&gt;" class="s3" d="m1019.9 496.6v161h-119.2v-161z"/>
					</g>
				</g>
				<g id="&lt;Group&gt;">
					<g id="&lt;Group&gt;">
						<path id="&lt;Path&gt;" class="s3" d="m429.7 452.7h-208.6c-4.4 0-7.8-3.5-7.8-7.8v-115.6c0-4.4 3.4-7.9 7.8-7.9h208.6c4.3 0 7.8 3.5 7.8 7.9v115.6c0 4.3-3.5 7.8-7.8 7.8z"/>
					</g>
					<g id="&lt;Group&gt;">
						<path id="&lt;Path&gt;" class="s2" d="m230.1 329.4c-2 0-3.6-1.6-3.6-3.6v-8.8c0-2 1.6-3.6 3.6-3.6 2 0 3.6 1.6 3.6 3.6v8.8c0 2-1.6 3.6-3.6 3.6z"/>
						<path id="&lt;Path&gt;" class="s2" d="m246 329.4c-2 0-3.6-1.6-3.6-3.6v-8.8c0-2 1.6-3.6 3.6-3.6 2 0 3.6 1.6 3.6 3.6v8.8c0 2-1.6 3.6-3.6 3.6z"/>
						<path id="&lt;Path&gt;" class="s2" d="m261.9 329.4c-2 0-3.6-1.6-3.6-3.6v-8.8c0-2 1.6-3.6 3.6-3.6 2 0 3.6 1.6 3.6 3.6v8.8c0 2-1.6 3.6-3.6 3.6z"/>
						<path id="&lt;Path&gt;" class="s2" d="m277.8 329.4c-2 0-3.6-1.6-3.6-3.6v-8.8c0-2 1.6-3.6 3.6-3.6 2 0 3.6 1.6 3.6 3.6v8.8c0 2-1.6 3.6-3.6 3.6z"/>
						<path id="&lt;Path&gt;" class="s2" d="m293.6 329.4c-2 0-3.7-1.6-3.7-3.6v-8.8c0-2 1.7-3.6 3.7-3.6 2 0 3.6 1.6 3.6 3.6v8.8c0 2-1.6 3.6-3.6 3.6z"/>
						<path id="&lt;Path&gt;" class="s2" d="m309.4 329.4c-2 0-3.6-1.6-3.6-3.6v-8.8c0-2 1.6-3.6 3.6-3.6 2 0 3.7 1.6 3.7 3.6v8.8c0 2-1.7 3.6-3.7 3.6z"/>
						<path id="&lt;Path&gt;" class="s2" d="m325.3 329.4c-2 0-3.6-1.6-3.6-3.6v-8.8c0-2 1.6-3.6 3.6-3.6 2 0 3.6 1.6 3.6 3.6v8.8c0 2-1.6 3.6-3.6 3.6z"/>
						<path id="&lt;Path&gt;" class="s2" d="m341.2 329.4c-2 0-3.6-1.6-3.6-3.6v-8.8c0-2 1.6-3.6 3.6-3.6 2 0 3.6 1.6 3.6 3.6v8.8c0 2-1.6 3.6-3.6 3.6z"/>
						<path id="&lt;Path&gt;" class="s2" d="m357.1 329.4c-2 0-3.6-1.6-3.6-3.6v-8.8c0-2 1.6-3.6 3.6-3.6 2 0 3.6 1.6 3.6 3.6v8.8c0 2-1.6 3.6-3.6 3.6z"/>
						<path id="&lt;Path&gt;" class="s2" d="m373 329.4c-2 0-3.6-1.6-3.6-3.6v-8.8c0-2 1.6-3.6 3.6-3.6 2 0 3.6 1.6 3.6 3.6v8.8c0 2-1.6 3.6-3.6 3.6z"/>
						<path id="&lt;Path&gt;" class="s2" d="m388.9 329.4c-2 0-3.6-1.6-3.6-3.6v-8.8c0-2 1.6-3.6 3.6-3.6 2 0 3.6 1.6 3.6 3.6v8.8c0 2-1.6 3.6-3.6 3.6z"/>
						<path id="&lt;Path&gt;" class="s2" d="m404.8 329.4c-2 0-3.6-1.6-3.6-3.6v-8.8c0-2 1.6-3.6 3.6-3.6 2 0 3.6 1.6 3.6 3.6v8.8c0 2-1.6 3.6-3.6 3.6z"/>
						<path id="&lt;Path&gt;" class="s2" d="m420.7 329.4c-2 0-3.6-1.6-3.6-3.6v-8.8c0-2 1.6-3.6 3.6-3.6 2 0 3.6 1.6 3.6 3.6v8.8c0 2-1.6 3.6-3.6 3.6z"/>
					</g>
					<g id="&lt;Group&gt;">
						<g id="&lt;Group&gt;">
							<g id="&lt;Group&gt;">
								<path id="&lt;Path&gt;" class="s4" d="m246 360h-17.2c-1.4 0-2.6-1.2-2.6-2.6v-9.1c0-1.5 1.2-2.6 2.6-2.6h17.2c1.4 0 2.6 1.1 2.6 2.6v9.1c0 1.4-1.2 2.6-2.6 2.6z"/>
							</g>
							<path id="&lt;Path&gt;" class="s1" d="m275.3 360h-17.1c-1.5 0-2.6-1.2-2.6-2.6v-9.1c0-1.5 1.1-2.6 2.6-2.6h17.1c1.5 0 2.6 1.1 2.6 2.6v9.1c0 1.4-1.1 2.6-2.6 2.6z"/>
							<path id="&lt;Path&gt;" class="s1" d="m304.7 360h-17.2c-1.4 0-2.6-1.2-2.6-2.6v-9.1c0-1.5 1.2-2.6 2.6-2.6h17.2c1.4 0 2.6 1.1 2.6 2.6v9.1c0 1.4-1.2 2.6-2.6 2.6z"/>
							<path id="&lt;Path&gt;" class="s1" d="m334 360h-17.1c-1.5 0-2.7-1.2-2.7-2.6v-9.1c0-1.5 1.2-2.6 2.7-2.6h17.1c1.4 0 2.6 1.1 2.6 2.6v9.1c0 1.4-1.2 2.6-2.6 2.6z"/>
							<path id="&lt;Path&gt;" class="s1" d="m363.3 360h-17.2c-1.4 0-2.6-1.2-2.6-2.6v-9.1c0-1.5 1.2-2.6 2.6-2.6h17.2c1.4 0 2.6 1.1 2.6 2.6v9.1c0 1.4-1.2 2.6-2.6 2.6z"/>
							<path id="&lt;Path&gt;" class="s1" d="m392.6 360h-17.2c-1.4 0-2.6-1.2-2.6-2.6v-9.1c0-1.5 1.2-2.6 2.6-2.6h17.2c1.4 0 2.6 1.1 2.6 2.6v9.1c0 1.4-1.2 2.6-2.6 2.6z"/>
							<path id="&lt;Path&gt;" class="s1" d="m421.9 360h-17.1c-1.4 0-2.6-1.2-2.6-2.6v-9.1c0-1.5 1.2-2.6 2.6-2.6h17.1c1.5 0 2.7 1.1 2.7 2.6v9.1c0 1.4-1.2 2.6-2.7 2.6z"/>
						</g>
					</g>
					<g id="&lt;Group&gt;">
						<g id="&lt;Group&gt;">
							<path id="&lt;Path&gt;" class="s1" d="m246 380.3h-17.2c-1.4 0-2.6-1.2-2.6-2.6v-9.1c0-1.5 1.2-2.6 2.6-2.6h17.2c1.4 0 2.6 1.1 2.6 2.6v9.1c0 1.4-1.2 2.6-2.6 2.6z"/>
							<path id="&lt;Path&gt;" class="s1" d="m275.3 380.3h-17.1c-1.5 0-2.6-1.2-2.6-2.6v-9.1c0-1.5 1.1-2.6 2.6-2.6h17.1c1.5 0 2.6 1.1 2.6 2.6v9.1c0 1.4-1.1 2.6-2.6 2.6z"/>
							<path id="&lt;Path&gt;" class="s1" d="m304.7 380.3h-17.2c-1.4 0-2.6-1.2-2.6-2.6v-9.1c0-1.5 1.2-2.6 2.6-2.6h17.2c1.4 0 2.6 1.1 2.6 2.6v9.1c0 1.4-1.2 2.6-2.6 2.6z"/>
							<path id="&lt;Path&gt;" class="s1" d="m334 380.3h-17.1c-1.5 0-2.7-1.2-2.7-2.6v-9.1c0-1.5 1.2-2.6 2.7-2.6h17.1c1.4 0 2.6 1.1 2.6 2.6v9.1c0 1.4-1.2 2.6-2.6 2.6z"/>
							<path id="&lt;Path&gt;" class="s1" d="m363.3 380.3h-17.2c-1.4 0-2.6-1.2-2.6-2.6v-9.1c0-1.5 1.2-2.6 2.6-2.6h17.2c1.4 0 2.6 1.1 2.6 2.6v9.1c0 1.4-1.2 2.6-2.6 2.6z"/>
							<path id="&lt;Path&gt;" class="s1" d="m392.6 380.3h-17.2c-1.4 0-2.6-1.2-2.6-2.6v-9.1c0-1.5 1.2-2.6 2.6-2.6h17.2c1.4 0 2.6 1.1 2.6 2.6v9.1c0 1.4-1.2 2.6-2.6 2.6z"/>
							<path id="&lt;Path&gt;" class="s1" d="m421.9 380.3h-17.1c-1.4 0-2.6-1.2-2.6-2.6v-9.1c0-1.5 1.2-2.6 2.6-2.6h17.1c1.5 0 2.7 1.1 2.7 2.6v9.1c0 1.4-1.2 2.6-2.7 2.6z"/>
						</g>
					</g>
					<g id="&lt;Group&gt;">
						<g id="&lt;Group&gt;">
							<path id="&lt;Path&gt;" class="s1" d="m246 400.6h-17.2c-1.4 0-2.6-1.1-2.6-2.6v-9.1c0-1.4 1.2-2.6 2.6-2.6h17.2c1.4 0 2.6 1.2 2.6 2.6v9.1c0 1.5-1.2 2.6-2.6 2.6z"/>
							<path id="&lt;Path&gt;" class="s1" d="m275.3 400.6h-17.1c-1.5 0-2.6-1.1-2.6-2.6v-9.1c0-1.4 1.1-2.6 2.6-2.6h17.1c1.5 0 2.6 1.2 2.6 2.6v9.1c0 1.5-1.1 2.6-2.6 2.6z"/>
							<path id="&lt;Path&gt;" class="s1" d="m304.7 400.6h-17.2c-1.4 0-2.6-1.1-2.6-2.6v-9.1c0-1.4 1.2-2.6 2.6-2.6h17.2c1.4 0 2.6 1.2 2.6 2.6v9.1c0 1.5-1.2 2.6-2.6 2.6z"/>
							<g id="&lt;Group&gt;">
								<path id="&lt;Path&gt;" class="s4" d="m334 400.6h-17.1c-1.5 0-2.7-1.1-2.7-2.6v-9.1c0-1.4 1.2-2.6 2.7-2.6h17.1c1.4 0 2.6 1.2 2.6 2.6v9.1c0 1.5-1.2 2.6-2.6 2.6z"/>
							</g>
							<path id="&lt;Path&gt;" class="s1" d="m363.3 400.6h-17.2c-1.4 0-2.6-1.1-2.6-2.6v-9.1c0-1.4 1.2-2.6 2.6-2.6h17.2c1.4 0 2.6 1.2 2.6 2.6v9.1c0 1.5-1.2 2.6-2.6 2.6z"/>
							<path id="&lt;Path&gt;" class="s1" d="m392.6 400.6h-17.2c-1.4 0-2.6-1.1-2.6-2.6v-9.1c0-1.4 1.2-2.6 2.6-2.6h17.2c1.4 0 2.6 1.2 2.6 2.6v9.1c0 1.5-1.2 2.6-2.6 2.6z"/>
							<path id="&lt;Path&gt;" class="s1" d="m421.9 400.6h-17.1c-1.4 0-2.6-1.1-2.6-2.6v-9.1c0-1.4 1.2-2.6 2.6-2.6h17.1c1.5 0 2.7 1.2 2.7 2.6v9.1c0 1.5-1.2 2.6-2.7 2.6z"/>
						</g>
					</g>
					<g id="&lt;Group&gt;">
						<g id="&lt;Group&gt;">
							<path id="&lt;Path&gt;" class="s1" d="m246 420.9h-17.2c-1.4 0-2.6-1.1-2.6-2.6v-9.1c0-1.4 1.2-2.6 2.6-2.6h17.2c1.4 0 2.6 1.2 2.6 2.6v9.1c0 1.5-1.2 2.6-2.6 2.6z"/>
							<path id="&lt;Path&gt;" class="s1" d="m275.3 420.9h-17.1c-1.5 0-2.6-1.1-2.6-2.6v-9.1c0-1.4 1.1-2.6 2.6-2.6h17.1c1.5 0 2.6 1.2 2.6 2.6v9.1c0 1.5-1.1 2.6-2.6 2.6z"/>
							<path id="&lt;Path&gt;" class="s1" d="m304.7 420.9h-17.2c-1.4 0-2.6-1.1-2.6-2.6v-9.1c0-1.4 1.2-2.6 2.6-2.6h17.2c1.4 0 2.6 1.2 2.6 2.6v9.1c0 1.5-1.2 2.6-2.6 2.6z"/>
							<path id="&lt;Path&gt;" class="s1" d="m334 420.9h-17.1c-1.5 0-2.7-1.1-2.7-2.6v-9.1c0-1.4 1.2-2.6 2.7-2.6h17.1c1.4 0 2.6 1.2 2.6 2.6v9.1c0 1.5-1.2 2.6-2.6 2.6z"/>
							<path id="&lt;Path&gt;" class="s1" d="m363.3 420.9h-17.2c-1.4 0-2.6-1.1-2.6-2.6v-9.1c0-1.4 1.2-2.6 2.6-2.6h17.2c1.4 0 2.6 1.2 2.6 2.6v9.1c0 1.5-1.2 2.6-2.6 2.6z"/>
							<path id="&lt;Path&gt;" class="s1" d="m392.6 420.9h-17.2c-1.4 0-2.6-1.1-2.6-2.6v-9.1c0-1.4 1.2-2.6 2.6-2.6h17.2c1.4 0 2.6 1.2 2.6 2.6v9.1c0 1.5-1.2 2.6-2.6 2.6z"/>
							<path id="&lt;Path&gt;" class="s1" d="m421.9 420.9h-17.1c-1.4 0-2.6-1.1-2.6-2.6v-9.1c0-1.4 1.2-2.6 2.6-2.6h17.1c1.5 0 2.7 1.2 2.7 2.6v9.1c0 1.5-1.2 2.6-2.7 2.6z"/>
						</g>
					</g>
					<g id="&lt;Group&gt;">
						<g id="&lt;Group&gt;">
							<g id="&lt;Group&gt;">
								<path id="&lt;Path&gt;" class="s4" d="m246 441.3h-17.2c-1.4 0-2.6-1.2-2.6-2.7v-9.1c0-1.4 1.2-2.6 2.6-2.6h17.2c1.4 0 2.6 1.2 2.6 2.6v9.1c0 1.5-1.2 2.7-2.6 2.7z"/>
							</g>
							<path id="&lt;Path&gt;" class="s1" d="m275.3 441.3h-17.1c-1.5 0-2.6-1.2-2.6-2.7v-9.1c0-1.4 1.1-2.6 2.6-2.6h17.1c1.5 0 2.6 1.2 2.6 2.6v9.1c0 1.5-1.1 2.7-2.6 2.7z"/>
							<path id="&lt;Path&gt;" class="s1" d="m304.7 441.3h-17.2c-1.4 0-2.6-1.2-2.6-2.7v-9.1c0-1.4 1.2-2.6 2.6-2.6h17.2c1.4 0 2.6 1.2 2.6 2.6v9.1c0 1.5-1.2 2.7-2.6 2.7z"/>
							<path id="&lt;Path&gt;" class="s1" d="m334 441.3h-17.1c-1.5 0-2.7-1.2-2.7-2.7v-9.1c0-1.4 1.2-2.6 2.7-2.6h17.1c1.4 0 2.6 1.2 2.6 2.6v9.1c0 1.5-1.2 2.7-2.6 2.7z"/>
							<g id="&lt;Group&gt;">
								<path id="&lt;Path&gt;" class="s4" d="m363.3 441.3h-17.2c-1.4 0-2.6-1.2-2.6-2.7v-9.1c0-1.4 1.2-2.6 2.6-2.6h17.2c1.4 0 2.6 1.2 2.6 2.6v9.1c0 1.5-1.2 2.7-2.6 2.7z"/>
							</g>
							<path id="&lt;Path&gt;" class="s1" d="m392.6 441.3h-17.2c-1.4 0-2.6-1.2-2.6-2.7v-9.1c0-1.4 1.2-2.6 2.6-2.6h17.2c1.4 0 2.6 1.2 2.6 2.6v9.1c0 1.5-1.2 2.7-2.6 2.7z"/>
							<path id="&lt;Path&gt;" class="s1" d="m421.9 441.3h-17.1c-1.4 0-2.6-1.2-2.6-2.7v-9.1c0-1.4 1.2-2.6 2.6-2.6h17.1c1.5 0 2.7 1.2 2.7 2.6v9.1c0 1.5-1.2 2.7-2.7 2.7z"/>
						</g>
					</g>
				</g>
			</g>
			<g id="&lt;Group&gt;" style="opacity: .2;mix-blend-mode: overlay">
				<g id="&lt;Group&gt;">
					<path id="&lt;Path&gt;" class="s0" d="m1006.9 292.1l-811.6 567c-33.1-47.9-58-101.8-72.6-159.8l759.1-530.3c48.7 33.3 91.1 75.1 125.1 123.1z"/>
					<path id="&lt;Path&gt;" class="s0" d="m757.6 107.6l-649.7 453.8c0.7-20.3 2.6-40.3 5.6-59.9l585.9-409.2c19.8 3.9 39.3 9 58.2 15.3z"/>
					<path id="&lt;Path&gt;" class="s0" d="m1097.6 577.8q0 5.8-0.1 11.6l-452.4 316.1h-171.2l613.4-428.5c6.8 32.5 10.3 66.2 10.3 100.8z"/>
				</g>
			</g>
		</g>
		<g id="&lt;Group&gt;">
			<g id="&lt;Group&gt;">
				<g id="&lt;Group&gt;">
					<g id="&lt;Group&gt;">
						<path id="&lt;Path&gt;" class="s2" d="m515.7 90.4v38.9h-6v-37.8q3-0.6 6-1.1z"/>
					</g>
					<g id="&lt;Group&gt;">
						<g id="&lt;Group&gt;">
							<g id="&lt;Group&gt;">
								<path id="&lt;Path&gt;" class="s5" d="m597.3 178.2h-169.1l51.3-41c4.8-3.8 10-6.7 15.6-8.7q3.2-1.1 6.5-1.8c3.6-0.8 7.4-1.2 11.1-1.2 12.1 0 23.8 4.1 33.2 11.7z"/>
							</g>
							<g id="&lt;Group&gt;">
								<path id="&lt;Path&gt;" class="s6" d="m575 178.2h-146.8l51.3-41c4.8-3.8 10-6.7 15.6-8.7q3.2-1.1 6.5-1.8c8 1.7 15.6 5.3 22.1 10.5z"/>
							</g>
							<g id="&lt;Group&gt;">
								<g id="&lt;Group&gt;">
									<path id="&lt;Path&gt;" class="s7" d="m470.5 158.5l-12.4 10.1c-1.7 1.4-4.3 1.2-5.8-0.6-1.4-1.8-1.2-4.4 0.6-5.8l12.4-10.1c1.7-1.5 4.3-1.2 5.8 0.6 1.4 1.7 1.2 4.3-0.6 5.8z"/>
								</g>
								<path id="&lt;Path&gt;" class="s7" d="m480.3 150.4l-1.4 1.1c-1.7 1.5-4.3 1.2-5.8-0.5-1.4-1.8-1.1-4.4 0.6-5.8l1.4-1.2c1.7-1.4 4.3-1.1 5.8 0.6 1.4 1.8 1.2 4.4-0.6 5.8z"/>
							</g>
						</g>
						<g id="&lt;Group&gt;">
							<g id="&lt;Group&gt;">
								<path id="&lt;Path&gt;" class="s8" d="m605.4 187.2c0 2.5-1.1 4.8-2.7 6.4-1.6 1.6-3.9 2.6-6.3 2.6h-167.3c-5 0-9-4-9-9 0-2.4 1-4.7 2.6-6.3 1.7-1.7 3.9-2.7 6.4-2.7h167.3c4.9 0 9 4.1 9 9z"/>
							</g>
							<path id="&lt;Path&gt;" class="s0" d="m582.6 187.2c0 2.5-1 4.8-2.6 6.4-1.6 1.6-3.9 2.6-6.4 2.6h-144.5c-5 0-9-4-9-9 0-2.4 1-4.7 2.6-6.3 1.7-1.7 3.9-2.7 6.4-2.7h144.5c5 0 9 4.1 9 9z"/>
						</g>
						<g id="&lt;Group&gt;">
							<path id="&lt;Path&gt;" class="s0" d="m529.3 196.2c0 2.1-0.3 4-1 5.8-2.3 6.4-8.4 10.9-15.6 10.9-7.1 0-13.2-4.5-15.5-10.9-0.7-1.8-1.1-3.7-1.1-5.8z"/>
							<g id="&lt;Group&gt;">
								<path id="&lt;Path&gt;" class="s8" d="m529.3 196.2c0 2.1-0.3 4-1 5.8h-31.1c-0.7-1.8-1.1-3.7-1.1-5.8z"/>
							</g>
						</g>
					</g>
				</g>
				<g id="&lt;Group&gt;">
					<g id="&lt;Group&gt;">
						<g id="&lt;Group&gt;">
							<path id="&lt;Path&gt;" class="s0" d="m437.6 560.7h-243.8c-20.5 0-37.2-16.6-37.2-37.1 0-20.5 16.7-37.2 37.2-37.2h243.8c20.5 0 37.2 16.7 37.2 37.2 0 20.5-16.7 37.1-37.2 37.1z"/>
							<path id="&lt;Path&gt;" class="s0" d="m503.9 512.2l-36.7 3.1v23.4z"/>
						</g>
					</g>
					<g id="&lt;Group&gt;">
						<g id="&lt;Group&gt;">
							<path id="&lt;Path&gt;" class="s5" d="m222 523.9c0 13.6-11 24.5-24.5 24.5-13.6 0-24.6-10.9-24.6-24.5 0-13.6 11-24.5 24.6-24.5 13.5 0 24.5 10.9 24.5 24.5z"/>
							<g id="&lt;Group&gt;">
								<path id="&lt;Path&gt;" class="s0" d="m207.3 540.7h-19.6v-4.4c0-5.5 4.4-9.9 9.8-9.9 5.4 0 9.8 4.4 9.8 9.9z"/>
								<path id="&lt;Path&gt;" class="s0" d="m205.7 515.3c0 4.5-3.7 8.2-8.2 8.2-4.6 0-8.2-3.7-8.2-8.2 0-4.5 3.6-8.2 8.2-8.2 4.5 0 8.2 3.7 8.2 8.2z"/>
							</g>
						</g>
						<g id="&lt;Group&gt;">
							<g id="&lt;Group&gt;">
								<path id="&lt;Path&gt;" class="s9" d="m281.4 523.9c0 13.6-11 24.5-24.5 24.5-13.6 0-24.6-10.9-24.6-24.5 0-13.6 11-24.5 24.6-24.5 13.5 0 24.5 10.9 24.5 24.5z"/>
							</g>
							<g id="&lt;Group&gt;">
								<path id="&lt;Path&gt;" class="s0" d="m266.7 540.7h-19.6v-4.4c0-5.5 4.4-9.9 9.8-9.9 5.4 0 9.8 4.4 9.8 9.9z"/>
								<path id="&lt;Path&gt;" class="s0" d="m265.1 515.3c0 4.5-3.7 8.2-8.2 8.2-4.5 0-8.2-3.7-8.2-8.2 0-4.5 3.7-8.2 8.2-8.2 4.5 0 8.2 3.7 8.2 8.2z"/>
							</g>
						</g>
						<g id="&lt;Group&gt;">
							<g id="&lt;Group&gt;">
								<path id="&lt;Path&gt;" class="s9" d="m340.3 523.9c0 13.6-10.9 24.5-24.5 24.5-13.6 0-24.6-10.9-24.6-24.5 0-13.6 11-24.5 24.6-24.5 13.6 0 24.5 10.9 24.5 24.5z"/>
							</g>
							<g id="&lt;Group&gt;">
								<path id="&lt;Path&gt;" class="s0" d="m325.6 540.7h-19.6v-4.4c0-5.5 4.4-9.9 9.8-9.9 5.4 0 9.8 4.4 9.8 9.9z"/>
								<path id="&lt;Path&gt;" class="s0" d="m324 515.3c0 4.5-3.7 8.2-8.2 8.2-4.5 0-8.2-3.7-8.2-8.2 0-4.5 3.7-8.2 8.2-8.2 4.5 0 8.2 3.7 8.2 8.2z"/>
							</g>
						</g>
						<g id="&lt;Group&gt;">
							<g id="&lt;Group&gt;">
								<path id="&lt;Path&gt;" class="s9" d="m399.7 523.9c0 13.6-10.9 24.5-24.5 24.5-13.6 0-24.5-10.9-24.5-24.5 0-13.6 10.9-24.5 24.5-24.5 13.6 0 24.5 10.9 24.5 24.5z"/>
							</g>
							<g id="&lt;Group&gt;">
								<path id="&lt;Path&gt;" class="s0" d="m385 540.7h-19.6v-4.4c0-5.5 4.4-9.9 9.8-9.9 5.4 0 9.8 4.4 9.8 9.9z"/>
								<path id="&lt;Path&gt;" class="s0" d="m383.4 515.3c0 4.5-3.7 8.2-8.2 8.2-4.5 0-8.2-3.7-8.2-8.2 0-4.5 3.7-8.2 8.2-8.2 4.5 0 8.2 3.7 8.2 8.2z"/>
							</g>
						</g>
						<g id="&lt;Group&gt;">
							<g id="&lt;Group&gt;">
								<path id="&lt;Path&gt;" class="s9" d="m459.2 523.9c0 13.6-11 24.5-24.6 24.5-13.5 0-24.5-10.9-24.5-24.5 0-13.6 11-24.5 24.5-24.5 13.6 0 24.6 10.9 24.6 24.5z"/>
							</g>
							<g id="&lt;Group&gt;">
								<path id="&lt;Path&gt;" class="s0" d="m444.4 540.7h-19.6v-4.4c0-5.5 4.4-9.9 9.8-9.9 5.4 0 9.8 4.4 9.8 9.9z"/>
								<path id="&lt;Path&gt;" class="s0" d="m442.8 515.3c0 4.5-3.6 8.2-8.2 8.2-4.5 0-8.2-3.7-8.2-8.2 0-4.5 3.7-8.2 8.2-8.2 4.6 0 8.2 3.7 8.2 8.2z"/>
							</g>
						</g>
					</g>
				</g>
				<g id="&lt;Group&gt;">
					<g id="&lt;Group&gt;">
						<g id="&lt;Group&gt;">
							<path id="&lt;Path&gt;" class="s10" d="m925.8 529.6h-100.5c-20.7 0-37.4-16.8-37.4-37.5 0-20.6 16.7-37.4 37.4-37.4h100.5c20.7 0 37.4 16.8 37.4 37.4 0 20.7-16.7 37.5-37.4 37.5z"/>
						</g>
						<g id="&lt;Group&gt;">
							<g id="&lt;Group&gt;">
								<g id="&lt;Group&gt;">
									<path id="&lt;Path&gt;" class="s11" d="m843.3 472.1h-19.1c-3.3 0-6-2.6-6-5.9 0-3.3 2.7-5.9 6-5.9h19.1c3.3 0 6 2.6 6 5.9 0 3.3-2.7 5.9-6 5.9z"/>
								</g>
								<g id="&lt;Group&gt;">
									<path id="&lt;Path&gt;" class="s11" d="m862.1 472.1h-2.3c-3.3 0-6-2.6-6-5.9 0-3.3 2.7-5.9 6-5.9h2.3c3.3 0 5.9 2.6 5.9 5.9 0 3.3-2.6 5.9-5.9 5.9z"/>
								</g>
							</g>
						</g>
					</g>
					<g id="&lt;Group&gt;">
						<path id="&lt;Path&gt;" class="s10" d="m807.3 546.4l20.4-16.8h32.5z"/>
					</g>
					<g id="&lt;Group&gt;">
						<g id="&lt;Group&gt;">
							<path id="&lt;Path&gt;" class="s0" d="m847.7 492.1c0 5.8-4.7 10.4-10.4 10.4-5.7 0-10.4-4.6-10.4-10.4 0-5.7 4.7-10.4 10.4-10.4 5.7 0 10.4 4.7 10.4 10.4z"/>
						</g>
						<g id="&lt;Group&gt;">
							<path id="&lt;Path&gt;" class="s0" d="m886 492.1c0 5.8-4.7 10.4-10.4 10.4-5.8 0-10.4-4.6-10.4-10.4 0-5.7 4.6-10.4 10.4-10.4 5.7 0 10.4 4.7 10.4 10.4z"/>
						</g>
						<g id="&lt;Group&gt;">
							<path id="&lt;Path&gt;" class="s0" d="m924.2 492.1c0 5.8-4.6 10.4-10.4 10.4-5.7 0-10.4-4.6-10.4-10.4 0-5.7 4.7-10.4 10.4-10.4 5.8 0 10.4 4.7 10.4 10.4z"/>
						</g>
					</g>
				</g>
				<g id="&lt;Group&gt;">
					<g id="&lt;Group&gt;">
						<g id="&lt;Group&gt;">
							<path id="&lt;Path&gt;" class="s0" d="m1053.3 569v58.1c0 3.8-3 6.9-6.9 6.9h-99.2c-3.8 0-6.9-3.1-6.9-6.9v-58.1c0-2.2 1-4.1 2.5-5.4 1.2-0.9 2.7-1.6 4.4-1.6h99.2c1.7 0 3.3 0.7 4.5 1.6 1.5 1.3 2.4 3.2 2.4 5.4z"/>
							<path id="&lt;Path&gt;" class="s8" d="m1053.3 616.7v9.3l-52.5-35.7c-2.4-1.6-5.5-1.6-8 0l-52.5 35.7v-9.3l51.6-35c3-2 6.8-2 9.8 0z"/>
							<g id="&lt;Group&gt;">
								<path id="&lt;Path&gt;" class="s0" d="m1050.9 563.6l-50.6 34.3c-2.1 1.5-4.9 1.5-7 0l-50.5-34.3c1.2-1 2.7-1.5 4.4-1.5h99.2c1.7 0 3.3 0.5 4.5 1.5z"/>
								<path id="&lt;Path&gt;" class="s8" d="m1053.3 569v1.2l-52.1 35.4c-2.7 1.8-6.1 1.8-8.7 0l-52.2-35.4v-1.2c0-2.2 1-4.1 2.5-5.4l50.5 34.3c2.1 1.5 4.9 1.5 7 0l50.6-34.3c1.5 1.3 2.4 3.2 2.4 5.4z"/>
							</g>
						</g>
						<g id="&lt;Group&gt;">
							<g id="&lt;Group&gt;">
								<g id="&lt;Group&gt;">
									<path id="&lt;Path&gt;" class="s9" d="m1062.6 643.3h-32.9c-3.5 0-6.4-2.8-6.4-6.3v-12.2c0-3.5 2.9-6.4 6.4-6.4h32.9c3.6 0 6.4 2.9 6.4 6.4v12.2c0 3.5-2.8 6.3-6.4 6.3z"/>
								</g>
								<g id="&lt;Group&gt;">
									<path id="&lt;Path&gt;" class="s12" d="m1036.9 625.1h-7.2c-1.4 0-2.4-1.1-2.4-2.4 0-1.4 1-2.5 2.4-2.5h7.2c1.3 0 2.4 1.1 2.4 2.5 0 1.3-1.1 2.4-2.4 2.4z"/>
								</g>
								<g id="&lt;Group&gt;">
									<path id="&lt;Path&gt;" class="s12" d="m1044.5 625.1h-1.4c-1.4 0-2.5-1.1-2.5-2.4 0-1.4 1.1-2.5 2.5-2.5h1.4c1.4 0 2.5 1.1 2.5 2.5 0 1.3-1.1 2.4-2.5 2.4z"/>
								</g>
							</g>
							<text id="321
" style="transform: matrix(2,0,0,2,1028.442,637.512)" >
								<tspan x="0" y="0" class="t13">321
</tspan>
							</text>
						</g>
					</g>
				</g>
				<g id="&lt;Group&gt;">
					<g id="&lt;Group&gt;">
						<g id="&lt;Group&gt;">
							<path id="&lt;Path&gt;" class="s10" d="m431.1 415.1c0 28.6-23.2 51.8-51.8 51.8-28.6 0-51.8-23.2-51.8-51.8 0-28.7 23.2-51.9 51.8-51.9 28.6 0 51.8 23.2 51.8 51.9z"/>
						</g>
						<g id="&lt;Group&gt;">
							<g id="&lt;Group&gt;">
								<path id="&lt;Path&gt;" class="s11" d="m343.7 388.5c1.6 5 9.5 6.8 17.6 4 8.1-2.7 13.2-8.9 11.6-13.9-1.7-4.9-9.6-6.7-17.7-4-8 2.7-13.2 9-11.5 13.9z"/>
							</g>
							<g id="&lt;Group&gt;">
								<path id="&lt;Path&gt;" class="s11" d="m335.9 395.1c-1.5 2.6-1.1 5.6 0.9 6.7 1.9 1.2 4.7 0 6.2-2.6 1.5-2.5 1.1-5.5-0.8-6.7-2-1.1-4.8 0.1-6.3 2.6z"/>
							</g>
						</g>
					</g>
					<g id="&lt;Group&gt;">
						<path id="&lt;Compound Path&gt;" class="s0" d="m379.6 390.7q3.8 0 7.2 1 3.4 1.1 5.9 3 2.5 1.9 4 4.5 1.4 2.5 1.4 5.6 0 2.5-0.8 4.3-0.8 1.9-2.1 3.4-1.3 1.5-2.8 2.7-1.5 1.2-2.9 2.4-1.4 1.2-2.5 2.4-1.2 1.3-1.6 2.8-0.2 0.8-0.6 1.3-0.5 0.6-1.2 0.6h-8.4q-0.8 0-1.3-0.6-0.6-0.5-0.6-1.3 0-2.3 0.9-4 1-1.8 2.3-3.3 1.4-1.5 3-2.7 1.7-1.2 3-2.4 1.4-1.1 2.3-2.3 1-1.2 1-2.5 0-2-1.6-3.2-1.5-1.1-4.6-1.1-3.1 0-4.5 0.9-1.3 1-1.9 2.1-0.6 1.1-1.1 2-0.4 0.9-1.7 0.9h-8.4q-0.6 0-1.1-0.4-0.4-0.4-0.4-1.1 0-2.4 1.4-5 1.3-2.7 3.7-4.9 2.4-2.2 5.9-3.7 3.5-1.4 8.1-1.4zm5.9 46.9q0 0.7-0.5 1.3-0.6 0.5-1.3 0.5h-8.7q-0.7 0-1.3-0.5-0.5-0.6-0.5-1.3v-7q0-0.7 0.5-1.3 0.6-0.5 1.3-0.5h8.7q0.7 0 1.3 0.5 0.5 0.6 0.5 1.3z"/>
					</g>
					<path id="&lt;Path&gt;" class="s10" d="m439.1 448l-24.7 0.2 0.9-15.8z"/>
				</g>
				<g id="&lt;Group&gt;">
					<g id="&lt;Group&gt;">
						<g id="&lt;Group&gt;">
							<path id="&lt;Path&gt;" class="s14" d="m1087.5 413.7c0 29.7-24.1 53.8-53.8 53.8-29.8 0-53.9-24.1-53.9-53.8 0-29.8 24.1-53.9 53.9-53.9 29.7 0 53.8 24.1 53.8 53.9z"/>
						</g>
						<g id="&lt;Group&gt;">
							<g id="&lt;Group&gt;">
								<path id="&lt;Path&gt;" class="s15" d="m1069.4 386.9c-2.4 7.1-13.7 9.7-25.2 5.8-11.5-3.9-18.9-12.8-16.5-19.9 2.4-7.1 13.7-9.6 25.2-5.7 11.5 3.9 18.9 12.8 16.5 19.8z"/>
							</g>
							<g id="&lt;Group&gt;">
								<path id="&lt;Path&gt;" class="s15" d="m1080.4 396.4c2.1 3.7 1.6 7.9-1.2 9.6-2.8 1.6-6.8-0.1-8.9-3.8-2.1-3.6-1.6-7.9 1.2-9.5 2.8-1.6 6.8 0 8.9 3.7z"/>
							</g>
						</g>
					</g>
					<path id="&lt;Compound Path&gt;" fill-rule="evenodd" class="s0" d="m1067.6 411.3v5c0 0.9-0.3 1.7-0.9 2.3-0.6 0.5-1.4 0.9-2.3 0.9-1.4 0-2.7 1-3 2.3q-1 3.1-2.5 5.9c-0.2 0.5-0.4 1-0.4 1.6 0 0.8 0.3 1.6 0.9 2.2 1.3 1.3 1.3 3.3 0 4.5l-3.5 3.6c-0.6 0.6-1.4 0.9-2.2 0.9-0.9 0-1.7-0.3-2.3-0.9-1-1.1-2.6-1.2-3.8-0.6q-2.8 1.6-5.9 2.5c-1.4 0.4-2.3 1.6-2.3 3.1 0 1.7-1.5 3.1-3.2 3.1h-5c-0.9 0-1.7-0.3-2.3-0.9-0.6-0.6-0.9-1.4-0.9-2.2 0-1.5-1-2.7-2.4-3.1q-3-0.9-5.8-2.5-0.8-0.4-1.6-0.4c-0.8 0-1.6 0.4-2.2 1-1.3 1.2-3.3 1.2-4.5 0l-3.6-3.6c-0.6-0.6-0.9-1.4-0.9-2.2 0-0.8 0.3-1.7 0.9-2.3 1-1 1.2-2.6 0.5-3.8q-1.5-2.8-2.4-5.9c-0.4-1.3-1.6-2.3-3.1-2.3-1.7 0-3.1-1.4-3.1-3.2v-5c0-1.8 1.4-3.2 3.1-3.2 1.5 0 2.7-0.9 3.1-2.3q0.9-3.1 2.4-5.9 0.5-0.7 0.4-1.6c0-0.8-0.3-1.6-0.9-2.2-1.2-1.2-1.2-3.3 0-4.5l3.6-3.6c0.6-0.6 1.4-0.9 2.2-0.9 0.8 0 1.6 0.3 2.3 0.9 1 1.1 2.5 1.3 3.8 0.6q2.8-1.6 5.8-2.5c1.4-0.4 2.4-1.6 2.4-3 0-1.8 1.4-3.2 3.2-3.2h5c0.9 0 1.7 0.3 2.2 0.9 0.6 0.6 1 1.4 1 2.3 0 1.4 0.9 2.6 2.3 3q3.1 0.9 5.9 2.5 0.7 0.4 1.5 0.4c0.9 0 1.7-0.3 2.3-1 1.2-1.2 3.3-1.2 4.5 0l3.5 3.6c0.7 0.6 1 1.4 1 2.2 0 0.9-0.3 1.7-1 2.3-1 1-1.2 2.6-0.5 3.8q1.5 2.8 2.5 5.9c0.3 1.4 1.6 2.3 3 2.3 1.8 0 3.2 1.4 3.2 3.2zm-16.4 2.5c0-9.7-7.8-17.5-17.5-17.5-9.7 0-17.5 7.8-17.5 17.5 0 9.7 7.8 17.5 17.5 17.5 9.7 0 17.5-7.8 17.5-17.5z"/>
				</g>
				<g id="&lt;Group&gt;">
					<g id="&lt;Group&gt;">
						<g id="&lt;Group&gt;">
							<path id="&lt;Path&gt;" class="s14" d="m203 429.6c0 22.1-17.9 40-39.9 40-22.1 0-40-17.9-40-40 0-22 17.9-39.9 40-39.9 22 0 39.9 17.9 39.9 39.9z"/>
						</g>
						<g id="&lt;Group&gt;">
							<g id="&lt;Group&gt;">
								<path id="&lt;Path&gt;" class="s15" d="m189.5 409.8c-1.7 5.2-10.1 7.1-18.6 4.3-8.6-2.9-14-9.5-12.3-14.8 1.8-5.2 10.2-7.1 18.7-4.2 8.5 2.9 14 9.5 12.2 14.7z"/>
							</g>
							<g id="&lt;Group&gt;">
								<path id="&lt;Path&gt;" class="s15" d="m197.7 416.8c1.6 2.7 1.2 5.9-0.9 7.1-2 1.2-5 0-6.6-2.8-1.5-2.7-1.1-5.8 0.9-7 2.1-1.2 5 0 6.6 2.7z"/>
							</g>
						</g>
					</g>
					<g id="&lt;Group&gt;">
						<path id="&lt;Path&gt;" class="s0" d="m170 448.8q-0.4-0.1-0.9-0.1h-0.5v-24.4h-14.7v5h3.5v18c0 1.2-0.4 1.2-0.7 1.3q-0.5 0.1-1.1 0.1h-1.7v5.1h18.4v-1.8c0-2.6-1.7-3.1-2.3-3.2z"/>
						<path id="&lt;Path&gt;" class="s0" d="m159.1 418.8q1.8 1 3.7 1c3.1 0 5.5-1.4 7-4q1.1-1.9 1.1-4c0-3-1.5-5.5-4.1-6.9q-1.9-1.1-4-1.1c-3 0-5.5 1.5-7 4.2q-1 1.8-1 3.8c0 3.1 1.6 5.6 4.3 7z"/>
					</g>
				</g>
				<g id="&lt;Group&gt;">
					<g id="&lt;Group&gt;">
						<g id="&lt;Group&gt;">
							<path id="&lt;Path&gt;" class="s5" d="m333.5 314.4c0 27.1-22 49.1-49.2 49.1-27.1 0-49.2-22-49.2-49.1 0-27.2 22.1-49.2 49.2-49.2 27.2 0 49.2 22 49.2 49.2z"/>
						</g>
						<g id="&lt;Group&gt;">
							<g id="&lt;Group&gt;">
								<path id="&lt;Path&gt;" class="s6" d="m316.9 289.9c-2.2 6.5-12.5 8.8-23 5.3-10.5-3.6-17.2-11.7-15-18.1 2.1-6.5 12.4-8.8 22.9-5.3 10.5 3.6 17.3 11.7 15.1 18.1z"/>
							</g>
							<g id="&lt;Group&gt;">
								<path id="&lt;Path&gt;" class="s6" d="m327 298.6c1.9 3.3 1.4 7.2-1.1 8.7-2.6 1.5-6.2-0.1-8.2-3.4-1.9-3.4-1.4-7.3 1.1-8.7 2.6-1.5 6.2 0 8.2 3.4z"/>
							</g>
						</g>
					</g>
					<g id="&lt;Group&gt;">
						<path id="&lt;Path&gt;" class="s5" d="m345.3 344.4l-21.4-12.4-8.8 13.9z"/>
					</g>
					<g id="&lt;Group&gt;">
						<g id="&lt;Group&gt;">
							<path id="&lt;Path&gt;" class="s0" d="m281.4 328.2q-0.9-0.2-1.8-0.4c-5.4-1.3-9.2-6-9.5-11.3v-2.1-2.2c0.3-5.3 4.1-10 9.5-11.3q0.9-0.2 1.8-0.4c2.2-0.4 3.9-2 4.5-4 0.7-2.7 1.2-6.5 0.3-10.9-0.7-3.2-4.2-5.2-7.6-4.1-5.7 1.9-14.2 6.4-17.7 17.2-0.7 2.1-1 4.3-1.1 6.5-0.1 3-0.3 7.7-0.2 9.1v0.1c-0.1 1.4 0.1 6.1 0.2 9.1 0.1 2.2 0.4 4.4 1.1 6.5 3.5 10.8 12 15.3 17.7 17.2 3.4 1.1 6.9-0.9 7.6-4.1 0.9-4.4 0.4-8.2-0.3-10.9-0.6-2-2.3-3.6-4.5-4z"/>
						</g>
						<g id="&lt;Group&gt;">
							<path id="&lt;Path&gt;" class="s0" d="m294.7 302.5c-0.3-0.4-1.1-0.4-1.3 0l-5.4 8.6c-0.2 0.2-0.2 0.6 0 0.8 0.1 0.3 0.4 0.4 0.7 0.4h2.9v15c0 1.3 1.1 2.4 2.4 2.4 1.4 0 2.5-1.1 2.5-2.4v-15h2.9c0.3 0 0.6-0.1 0.7-0.4 0.1-0.2 0.1-0.6 0-0.8z"/>
							<path id="&lt;Path&gt;" class="s0" d="m313.6 319.9c-0.1-0.2-0.4-0.4-0.7-0.4h-2.9v-14.9c0-1.3-1.1-2.4-2.4-2.4-1.4 0-2.4 1.1-2.4 2.4v14.9h-3c-0.3 0-0.6 0.2-0.7 0.4-0.1 0.3-0.1 0.6 0 0.9l5.4 8.5c0.1 0.3 0.4 0.4 0.7 0.4 0.3 0 0.5-0.1 0.7-0.4l5.3-8.5c0.2-0.3 0.2-0.6 0-0.9z"/>
						</g>
					</g>
				</g>
			</g>
		</g>
		<g id="&lt;Group&gt;">
			<g id="&lt;Group&gt;">
				<g id="&lt;Group&gt;">
					<path id="&lt;Path&gt;" class="s14" d="m645.8 637.2v241.4h260.9v-241.4c0-29.6-23.9-53.5-53.5-53.5h-153.9c-29.5 0-53.5 23.9-53.5 53.5z"/>
				</g>
				<g id="&lt;Group&gt;">
					<path id="&lt;Path&gt;" class="s16" d="m645.8 637.2v241.4h235.6v-241.4c0-29.6-23.9-53.5-53.5-53.5h-128.6c-29.5 0-53.5 23.9-53.5 53.5z"/>
				</g>
				<g id="&lt;Group&gt;">
					<path id="&lt;Path&gt;" class="s17" d="m645.8 637.2v241.4h205.1v-241.4c0-29.6-24-53.5-53.5-53.5h-98.1c-29.5 0-53.5 23.9-53.5 53.5z"/>
				</g>
				<g id="&lt;Group&gt;">
					<g id="&lt;Group&gt;">
						<g id="&lt;Group&gt;">
							<path id="&lt;Path&gt;" class="s18" d="m714.8 603.2h16.2c3.3 0 6-2.7 6-6 0-3.3-2.7-6-6-6h-16.2c-3.3 0-6 2.7-6 6 0 3.3 2.7 6 6 6z"/>
						</g>
						<g id="&lt;Group&gt;">
							<path id="&lt;Path&gt;" class="s18" d="m693.3 603.2h3.2c3.3 0 6-2.7 6-6 0-3.3-2.7-6-6-6h-3.2c-3.3 0-6 2.7-6 6 0 3.3 2.7 6 6 6z"/>
						</g>
					</g>
				</g>
			</g>
			<g id="&lt;Group&gt;">
				<g id="&lt;Group&gt;">
					<g id="&lt;Group&gt;">
						<path id="&lt;Path&gt;" class="s19" d="m616.1 568.2c0 0-4.7 2.1-11.7 6.8-29.5 19.9-48.6 70.3-53 105.5l-13.1 105.2-50.4 5.8c-19.6 1.7-35.3 17.2-36.8 36.8q-0.1 0.5-0.1 1c-1.6 24.5 19.3 44.6 43.8 42.6l64.3-6.5c9.2-0.7 17.8-4.4 24.8-10.3 8.7-7.6 14.1-18.3 14.9-29.8z"/>
					</g>
					<g id="&lt;Group&gt;">
						<g id="&lt;Group&gt;">
							<path id="&lt;Path&gt;" class="s20" d="m473.7 860l-20.4-2.2-15.2 0.2-56.1 11.4c-2.7 0.5-5.3-1.5-5.3-4.3v-0.2c0-1.4 0.1-2.9 0.2-4.3 1-8.8 5.6-17 12.9-22.1 2-1.4 3.4-2 3.4-2 18.1-20.2 53.2-13.5 53.2-13.5l21.8-4.3c9.4-1.9 18.7 2.7 22.9 10.7 1.2 2.1 1.9 4.5 2.2 7q0.1 0.4 0.1 0.7c1.2 11.8-7.9 22.2-19.7 22.9z"/>
						</g>
						<g id="&lt;Group&gt;">
							<path id="&lt;Path&gt;" class="s21" d="m471.3 851.5l-20.3-2.2-15.2 0.3-56.1 11.3c-1 0.2-1.9 0.1-2.8-0.3 1-8.8 5.6-17 12.9-22.1 2-1.4 3.4-2 3.4-2 18.1-20.2 53.2-13.5 53.2-13.5l21.8-4.3q0.2-0.1 0.3-0.1c19.7-3.7 27.2 25.7 8.1 31.9q-2.5 0.9-5.3 1z"/>
						</g>
					</g>
				</g>
				<g id="&lt;Group&gt;">
					<g id="&lt;Group&gt;">
						<path id="&lt;Path&gt;" class="s0" d="m726.4 557c-22.9 66-79.1 175.3-79.1 175.3-32.8-60.5-38.3-163.2-38.3-163.2 3.6-3.4 7.3-6.5 11.4-9.3 7.9-5.6 12.1-6.9 12.1-6.9l58-7.7c11.1 3.1 21.6 6.5 31.3 10q2.4 0.9 4.6 1.8z"/>
						<g id="&lt;Group&gt;">
							<path id="&lt;Path&gt;" class="s6" d="m846.8 878h-296.1l25.3-241.7c2.7-25.8 14.4-49.7 33-67.2 0 0 5.2 97.3 35.7 158.2q1.3 2.5 2.6 5c0 0 1.3-2.5 3.5-6.9 12.7-25 56.1-112.4 75.6-168.4 39.4 16 68.1 51.1 76.3 93.1z"/>
						</g>
						<g id="&lt;Group&gt;">
							<path id="&lt;Path&gt;" class="s8" d="m720.6 554.8c-15.9 33.3-45.7 62.9-45.7 62.9-5.9-13.8-18.5-31.2-18.5-31.2l-11.1 6.5-8.8-3.9c-2.8 5.9-11.1 19.8-11.1 19.8-9.9-12.8-14.4-29.7-16.4-39.8 3.6-3.4 7.3-6.5 11.4-9.3 7.9-5.6 12.1-6.9 12.1-6.9l58-7.7c10.6 2.9 20.7 6.2 30.1 9.6z"/>
						</g>
						<g id="&lt;Group&gt;">
							<path id="&lt;Path&gt;" class="s19" d="m650.8 725.4c-1.8 32.5-6 109.1-6.5 152.6h-6c0.4-42.6 4.5-116.9 6.4-150.7q1.3 2.5 2.6 5c0 0 1.3-2.5 3.5-6.9z"/>
						</g>
						<g id="&lt;Group&gt;">
							<path id="&lt;Path&gt;" class="s5" d="m726.4 705.1l-31.2-8.4 9 35.6c-23.7 42.2-59.1 113.8-59.1 113.8 1.4-42.5 4.3-95.2 5.7-120.7 12.7-25 56.1-112.4 75.6-168.4 15.2 6.1 28.7 15.1 40.1 26.2-18.9 45.8-40.1 121.9-40.1 121.9z"/>
						</g>
						<g id="&lt;Group&gt;">
							<path id="&lt;Path&gt;" class="s5" d="m644.7 727.3c-1.5 26.1-4.2 76.4-5.6 117.6-8.7-37.7-30.1-117-30.1-117l9.8-26.4-15.8 8.6c-7.7-48.6-12.7-101.4-14-115.3q0 0 0 0c5.3-9.5 12-18.2 20-25.7 0 0 4.3 92.1 35.7 158.2z"/>
						</g>
					</g>
					<g id="&lt;Group&gt;">
						<g id="&lt;Group&gt;">
							<g id="&lt;Group&gt;">
								<path id="&lt;Path&gt;" class="s21" d="m687.1 471.4v69.9c-12.9 16.5-37 24.9-37 24.9l-4.5 17-3.5-16.7c-7.4-4.1-9.6-13.6-9.6-13.6v-59.4z"/>
							</g>
							<g id="&lt;Group&gt;">
								<path id="&lt;Path&gt;" class="s20" d="m687.1 469.4v28.8c-17.7 12.9-37.9 21.4-54.6 26.3v-33z"/>
							</g>
						</g>
						<path id="&lt;Path&gt;" class="s0" d="m708.4 551.3c-8.1 16.1-33.5 48.7-33.5 48.7-6.8-12.9-18.6-25.4-18.6-25.4l-10.7 8.6 4.5-17c0 0 24.1-8.4 37-24.9v-10.6c10.3 3.8 21.3 20.6 21.3 20.6z"/>
						<path id="&lt;Path&gt;" class="s0" d="m645.6 583.2l-7.8-9.2c0 0-8.6 11.2-11.6 20.7 0 0-7.8-22.7-10.1-33.2 0 0 4.5-13.8 16.4-19.9v11.3c0 0 2.1 8.9 9.6 13.6z"/>
					</g>
				</g>
				<g id="&lt;Group&gt;">
					<g id="&lt;Group&gt;">
						<g id="&lt;Group&gt;">
							<path id="&lt;Path&gt;" class="s22" d="m541.4 412.1c0 26.5-16.5 48-36.8 48-20.3 0-36.7-21.5-36.7-48 0-13.4 4.2-25.6 11.1-34.3 3.3-4.3 7.3-7.7 11.7-10.1 4.3-2.3 9-3.6 13.9-3.6 20.3 0 36.8 21.5 36.8 48z"/>
						</g>
						<g id="&lt;Group&gt;">
							<path id="&lt;Path&gt;" class="s23" d="m498.3 405.6c-3.8 10.2-12.5 16.3-19.6 13.7-7.1-2.7-9.7-13-6-23.2 3.8-10.2 12.6-16.3 19.7-13.7 7 2.6 9.7 13 5.9 23.2z"/>
						</g>
						<g id="&lt;Group&gt;">
							<path id="&lt;Path&gt;" class="s23" d="m484.3 429.1c0.7 4.3-1.1 8.1-4 8.6-3 0.5-6-2.5-6.7-6.7-0.7-4.3 1.1-8.2 4-8.7 3-0.5 6 2.6 6.7 6.8z"/>
						</g>
					</g>
					<g id="&lt;Group&gt;">
						<path id="&lt;Path&gt;" class="s24" d="m776.4 316.7q-0.1 0-0.3 0c-11 2.1-24.5 2.2-41.2-0.6 0 0-30.3-27.7-55.1-45.1 0 0-0.3-4.8 0.2-12.3 0.4-6.4 1.4-14.9 3.8-23.9 12.9-48.5 72.7-64.9 108.9-30.2 9.7 9.2 18.7 21.4 24.8 37.7 12.1 32.2-7.4 68.1-41.1 74.4z"/>
						<g id="&lt;Group&gt;">
							<path id="&lt;Path&gt;" class="s25" d="m796.6 308.4c-5.9 4-12.7 6.9-20.2 8.3q-0.1 0-0.3 0c-11 2.1-24.5 2.2-41.2-0.6 0 0-30.3-27.7-55.1-45.1 0 0-0.3-4.8 0.2-12.3 0.4-6.4 1.4-14.9 3.8-23.9q0-0.1 0.1-0.1c11.6 1.4 37.5 7.7 57.7 34.1 0 0 37.4 4 55 39.6z"/>
						</g>
						<g id="&lt;Group&gt;">
							<path id="&lt;Path&gt;" class="s26" d="m775.1 207.9c-1.2 7.5-12.8 11.8-25.7 9.6-13-2.2-22.4-10.1-21.2-17.6 1.3-7.5 12.8-11.8 25.8-9.6 12.9 2.2 22.4 10.1 21.1 17.6z"/>
							<path id="&lt;Path&gt;" class="s26" d="m795.9 221.3c-2 2.5-7.2 1.8-11.7-1.6-4.4-3.5-6.4-8.3-4.4-10.9 2-2.6 7.2-1.9 11.6 1.6 4.5 3.4 6.5 8.3 4.5 10.9z"/>
						</g>
					</g>
					<g id="&lt;Group&gt;">
						<g id="&lt;Group&gt;">
							<path id="&lt;Path&gt;" class="s21" d="m743 438.7c-7.8 26.7-43.3 39.4-43.3 39.4-42.1 32.1-88.7 42.3-113 45.6-14.8 2-30 0.7-44.1-4.5-19.7-7.3-31.8-19.6-39.3-31.5-7.9-12.6-11.8-27.4-11.8-42.4v-79.1c0 0 2.7-19.7 19.3-37.1 14.2-14.9 34.3-22.5 54.8-22.4 6.5 0 13.5 0.7 20.1 2.6 0 0 48.1 13.7 75.9-9 0 0-33.6 47.1 8.5 71.5 11.8 6.8 20.2 18.2 22.5 31.6 1.1 6.5 1.9 14.4 1.9 23.9 3.1-6.3 6.8-10.8 10.5-14 18.2-15.4 44.7 2.5 38 25.4z"/>
						</g>
						<g id="&lt;Group&gt;">
							<path id="&lt;Path&gt;" class="s20" d="m519.9 336.3c0 0 32.3-23.3 67.7-16.6l-21.9-8.4c0 0-29.7 5.2-45.8 25z"/>
						</g>
						<path id="&lt;Path&gt;" class="s20" d="m692.6 403.4c-2.3-13.4-10.7-24.8-22.5-31.6-42.1-24.4-8.5-71.5-8.5-71.5-27.8 22.7-75.9 9-75.9 9-6.6-1.9-13.6-2.6-20.1-2.6-20.5-0.1-40.6 7.5-54.8 22.4-16 16.9-19.1 35.9-19.3 37 0.8-1.9 23.9-61.6 88.8-48.3 3.4 0.7 6.8 1.7 10.1 2.8 9.1 3.1 33.5 10.1 49.7 2.4 0 0-19.8 40.3 20 54.6 1.9 1 3.9 1.9 6.1 2.7 0 0 22.7 7.3 27.6 32.1q-0.5-4.9-1.2-9z"/>
					</g>
					<g id="&lt;Group&gt;">
						<path id="&lt;Path&gt;" class="s24" d="m719.4 467.8c9.6-6.5 19.8-16.2 23.6-29.1 6.7-22.9-19.8-40.8-38-25.4-3.7 3.2-7.4 7.7-10.5 14 0-9.5-0.8-17.4-1.9-23.9-2.3-13.4-10.7-24.8-22.5-31.6-42.1-24.4-8.5-71.5-8.5-71.5-27.8 22.7-75.9 9-75.9 9-6.6-1.9-13.6-2.6-20.1-2.6-20.5-0.1-40.6 7.5-54.8 22.4-16.6 17.4-19.3 37.1-19.3 37.1 0 0-0.3 0.5-0.8 1.5-4.4 2.4-8.4 5.8-11.7 10.1-2.9-24.5-4.4-87.2 46.8-121.9 7.8-5.3 16.5-9.2 25.7-11.8 17.1-4.8 47.3-9.9 71 4.6 0 0 74.9-28.7 114.2 30.7 0 0 18.3-2.8 36.4 15.8 9.1 9.4 14.9 21.3 17.4 34.1 6 30.9 8.9 100-71.1 138.5z"/>
						<path id="&lt;Path&gt;" class="s26" d="m519.9 284.8c0 0 39.1-18.8 95.7 9.7 0 0 1-13.3-9.5-23.8 0 0 74.5 5 93.5 68.8 0 0 2.4-79.5-121.6-82.4 0 0 15.5 11.7 21.5 21.7 0 0-41.1-20.3-79.6 6z"/>
						<path id="&lt;Path&gt;" class="s24" d="m597.7 311.8c0 0-49.3-7.6-77.8 24.5 0 0 17.8-31.5 57.5-33.1z"/>
						<path id="&lt;Path&gt;" class="s24" d="m652.2 306.3c0 0-24.5 37 6.1 67.6 0 0-21.3-35.1 5.4-73.6v-3.1z"/>
					</g>
					<g id="&lt;Group&gt;">
						<g id="&lt;Group&gt;">
							<g id="&lt;Group&gt;">
								<path id="&lt;Path&gt;" class="s27" d="m541.2 432.9c0 6.8 5.5 12.3 12.3 12.3 6.8 0 12.3-5.5 12.3-12.3 0-6.8-5.5-12.4-12.3-12.4-6.8 0-12.3 5.6-12.3 12.4z"/>
							</g>
							<g id="&lt;Group&gt;">
								<path id="&lt;Path&gt;" class="s20" d="m543.2 430.9c0 4.8 3.9 8.7 8.8 8.7 4.8 0 8.7-3.9 8.7-8.7 0-4.8-3.9-8.8-8.7-8.8-4.9 0-8.8 4-8.8 8.8z"/>
							</g>
						</g>
						<g id="&lt;Group&gt;">
							<g id="&lt;Group&gt;">
								<path id="&lt;Path&gt;" class="s24" d="m568.6 497.1q-0.2 0.1-0.4 0.1c-9.1 2.7-18.5-2.8-21.4-11.8l-4.5-14.3-1.1-3.5c0 0 20.3-8.3 37.3-8.3l0.6 4.6 1.7 14.1c1.1 8.5-4 16.6-12.2 19.1z"/>
							</g>
							<g id="&lt;Group&gt;">
								<g id="&lt;Group&gt;">
									<path id="&lt;Path&gt;" class="s28" d="m555.5 490.8c1 3.8 6.4 5.6 12.2 4.1 5.8-1.4 9.7-5.7 8.8-9.4-1-3.7-6.4-5.6-12.2-4.1-5.8 1.5-9.7 5.7-8.8 9.4z"/>
								</g>
								<g id="&lt;Group&gt;">
									<path id="&lt;Path&gt;" class="s29" d="m557.4 489c0.5 2.1 3.8 3 7.4 2.1 3.5-0.9 5.9-3.3 5.4-5.3-0.5-2.1-3.8-3.1-7.3-2.2-3.6 0.9-6 3.3-5.5 5.4z"/>
								</g>
							</g>
							<g id="&lt;Group&gt;">
								<path id="&lt;Path&gt;" class="s30" d="m579.1 463.9c-3.7 4.1-10.5 7.4-18.7 8.7-6.9 1.1-13.4 0.4-18.1-1.5l-0.7-2.4-0.4-1.1c0 0 20.3-8.3 37.3-8.3l0.3 2.1z"/>
								<path id="&lt;Path&gt;" class="s0" d="m578.8 461.4c-4.2 3.9-11.1 7.1-19.2 8.3-6.7 1.1-13.1 0.6-18-1l-0.4-1.1c0 0 20.3-8.3 37.3-8.3z"/>
							</g>
						</g>
						<g id="&lt;Group&gt;">
							<path id="&lt;Path&gt;" class="s24" d="m629.2 414.2c0 10.3-7.5 18.7-16.7 18.7-9.2 0-16.6-8.4-16.6-18.7 0-10.4 7.4-18.7 16.6-18.7 9.2 0 16.7 8.3 16.7 18.7z"/>
							<path id="&lt;Path&gt;" class="s0" d="m610.7 411.8c0 3.6-3 6.6-6.6 6.6-3.6 0-6.5-3-6.5-6.6 0-3.6 2.9-6.5 6.5-6.5 3.6 0 6.6 2.9 6.6 6.5z"/>
							<path id="&lt;Path&gt;" class="s24" d="m626 403.2c0 0 5.8 5.6 11.9 2.1 0 0-4.9 8.3-11.9 4.2z"/>
						</g>
						<g id="&lt;Group&gt;">
							<path id="&lt;Path&gt;" class="s24" d="m508.3 414.5c0 7.8 5.6 14.1 12.5 14.1 7 0 12.6-6.3 12.6-14.1 0-7.7-5.6-14-12.6-14-6.9 0-12.5 6.3-12.5 14z"/>
							<path id="&lt;Path&gt;" class="s0" d="m510.7 412.4c0 2.7 2.2 4.9 4.9 4.9 2.7 0 4.9-2.2 4.9-4.9 0-2.7-2.2-4.9-4.9-4.9-2.7 0-4.9 2.2-4.9 4.9z"/>
							<path id="&lt;Path&gt;" class="s24" d="m510.7 406.3c0 0-4.3 4.2-8.9 1.6 0 0 3.6 6.2 8.9 3.1z"/>
						</g>
						<path id="&lt;Path&gt;" class="s24" d="m614.4 380.4c5.3 0.5 13.6 1.7 20.4 4.2 3.5 1.3 7.3-0.2 8.6-3.6l0.1-0.2c1.5-3.6-0.5-7.7-4.3-8.8-6-1.8-15.3-3.7-25.2-2.2-2.4 0.3-4.2 2.3-4.4 4.7-0.3 3 1.8 5.6 4.8 5.9z"/>
						<path id="&lt;Path&gt;" class="s24" d="m505.6 386.2c3.8-1.5 9.5-3 17.2-2.9 2.3 0.1 4.3-1.5 4.6-3.8 0.4-2.5-1.2-4.8-3.7-5.2-4.8-0.7-12.9-1.2-21.8 1.5-3 0.9-4.6 4.2-3.6 7.1 1 3 4.4 4.5 7.3 3.3z"/>
					</g>
					<g id="&lt;Group&gt;">
						<g id="&lt;Group&gt;">
							<g id="&lt;Group&gt;">
								<path id="&lt;Path&gt;" class="s6" d="m754.3 390.2h-20.6c0 0 2.8-15.5 1.7-36.4-1.9-36.1-15.5-88.7-75.5-106.2-11.8-3.4-24.5-3.4-36.1 0.6q-0.7 0.2-1.3 0.5c0 0-5.6-3.5-10.4-5 0 0 5.7-3 15.3-5.2 17.7-4 36.1-1.9 52.8 5.2 27 11.6 72.2 41.3 75.6 111.7 0.6 10.6 0.1 22.2-1.5 34.8z"/>
							</g>
							<g id="&lt;Group&gt;">
								<path id="&lt;Path&gt;" class="s31" d="m754.3 390.2h-20.6c0 0 2.8-15.5 1.7-36.4q3.1-0.3 6.2-0.3c4.9 0 9.7 0.6 14.2 1.9 0.6 10.6 0.1 22.2-1.5 34.8z"/>
							</g>
						</g>
						<g id="&lt;Group&gt;">
							<g id="&lt;Group&gt;">
								<path id="&lt;Path&gt;" class="s6" d="m754.3 458.7c-1.7 7.4-4.7 14.3-8.9 20.5-8 12-20 21.1-34.4 25.5-31.9 9.7-71.6 16.9-97.3 21-16.1 2.6-26.8 4-26.8 4v-12.2c7.4-1.1 15.4-2.4 23.8-4 32.7-6 70.3-15 96.4-22.9 8.1-2.4 15.3-6.8 21-12.6 6.7-6.7 11.4-15.2 13.5-24.8z"/>
							</g>
							<g id="&lt;Group&gt;">
								<path id="&lt;Path&gt;" class="s32" d="m754.3 458.7c-1.7 7.4-4.7 14.3-8.9 20.5q-2.5 0.2-5 0.2c-4.2 0-8.3-0.5-12.3-1.4 6.7-6.7 11.4-15.2 13.5-24.8z"/>
							</g>
							<g id="&lt;Group&gt;">
								<path id="&lt;Path&gt;" class="s32" d="m614.4 521.9q0 2-0.7 3.8c-16.1 2.6-26.8 4-26.8 4v-12.2c7.4-1.1 15.4-2.4 23.8-4 1.1 1 2 2.3 2.6 3.7q0.7 1.3 0.9 2.9 0.2 0.9 0.2 1.8z"/>
							</g>
						</g>
						<g id="&lt;Group&gt;">
							<g id="&lt;Group&gt;">
								<g id="&lt;Group&gt;">
									<path id="&lt;Path&gt;" class="s22" d="m795.5 416.7c0 32-24.1 57.9-53.9 57.9-29.8 0-53.9-25.9-53.9-57.9 0-32 24.1-58 53.9-58 29.8 0 53.9 26 53.9 58z"/>
								</g>
								<g id="&lt;Group&gt;">
									<g id="&lt;Group&gt;">
										<path id="&lt;Path&gt;" class="s9" d="m799.7 416.7c0 28.7-20.3 52-45.4 52-25.1 0-45.4-23.3-45.4-52 0-28.7 20.3-52 45.4-52 25.1 0 45.4 23.3 45.4 52z"/>
									</g>
									<g id="&lt;Group&gt;">
										<path id="&lt;Path&gt;" class="s33" d="m795.2 407.9c2.5 23.3-12 43.9-32.3 46.1-20.3 2.2-38.8-15-41.3-38.2-2.5-23.3 12-43.9 32.3-46.1 20.3-2.2 38.8 14.9 41.3 38.2z"/>
									</g>
								</g>
							</g>
							<g id="&lt;Group&gt;">
								<g id="&lt;Group&gt;">
									<path id="&lt;Path&gt;" class="s6" d="m781.6 413c0 11.4-7.8 20.6-17.4 20.6-9.6 0-17.4-9.2-17.4-20.6 0-11.3 7.8-20.6 17.4-20.6 9.6 0 17.4 9.3 17.4 20.6z"/>
								</g>
								<g id="&lt;Group&gt;">
									<path id="&lt;Path&gt;" class="s34" d="m780 408.6c1.6 8.8-3.2 17-10.6 18.3-7.4 1.3-14.7-4.8-16.2-13.6-1.6-8.8 3.2-17 10.6-18.3 7.4-1.2 14.7 4.8 16.2 13.6z"/>
								</g>
							</g>
						</g>
						<g id="&lt;Group&gt;">
							<path id="&lt;Path&gt;" class="s24" d="m611.3 522.6c0 5-3.7 9.4-8.8 10.3l-13.8 2.2c-5.6 1-11-2.9-11.9-8.6q-0.1-0.6-0.1-1.2-0.1-0.2-0.1-0.5c0-5 3.7-9.4 8.8-10.2l13.8-2.3c4.7-0.7 9.2 1.8 11.1 6q0.6 1.2 0.8 2.6 0.2 0.9 0.2 1.7z"/>
							<path id="&lt;Path&gt;" class="s26" d="m605.7 527.4c-1.2 0.8-2.6 1.4-4.1 1.6l-13.8 2.3q-0.7 0.1-1.4 0.1c-8.6 0.2-11.8-11.7-4.2-15.7q1.5-0.8 3.2-1.1l13.8-2.3q1.2-0.2 2.5-0.1c7.6 0.6 10.4 11 4 15.2z"/>
						</g>
					</g>
				</g>
				<g id="&lt;Group&gt;">
					<g id="&lt;Group&gt;">
						<path id="&lt;Path&gt;" class="s35" d="m496.6 867.7c0 2.9-1.1 5.4-3 7.3-1.8 1.8-4.4 3-7.3 3h-114.1c-5.7 0-10.3-4.6-10.3-10.3 0-2.8 1.1-5.4 3-7.3 1.9-1.8 4.4-3 7.3-3h114.1c5.7 0 10.3 4.6 10.3 10.3z"/>
					</g>
					<g id="&lt;Group&gt;">
						<g id="&lt;Group&gt;">
							<path id="&lt;Path&gt;" class="s36" d="m496.6 867.7c0 2.9-1.1 5.4-3 7.3-1.8 1.8-4.4 3-7.3 3h-40.9c-5.7 0-10.3-4.6-10.3-10.3 0-2.8 1.1-5.4 3-7.3 1.9-1.8 4.5-3 7.3-3h40.9c5.7 0 10.3 4.6 10.3 10.3z"/>
						</g>
						<g id="&lt;Group&gt;">
							<path id="&lt;Path&gt;" class="s14" d="m486.5 867.7c0 2.9-1.2 5.4-3.1 7.3-1.8 1.8-4.4 3-7.2 3h-30.8c-5.7 0-10.3-4.6-10.3-10.3 0-2.8 1.1-5.4 3-7.3 1.9-1.8 4.5-3 7.3-3h30.8c5.6 0 10.3 4.6 10.3 10.3z"/>
						</g>
					</g>
				</g>
				<g id="&lt;Group&gt;">
					<g id="&lt;Group&gt;">
						<path id="&lt;Path&gt;" class="s14" d="m597.3 868.1v9.9h-84.2v-9.9c0-17.2 14-31.2 31.2-31.2h21.8c17.3 0 31.2 14 31.2 31.2z"/>
					</g>
					<g id="&lt;Group&gt;">
						<path id="&lt;Path&gt;" class="s35" d="m580.4 868.1v9.9h-67.3v-9.9c0-17.2 14-31.2 31.2-31.2h4.8c17.3 0 31.3 14 31.3 31.2z"/>
					</g>
				</g>
				<g id="&lt;Group&gt;">
					<g id="&lt;Group&gt;">
						<g id="&lt;Group&gt;">
							<path id="&lt;Path&gt;" class="s6" d="m769.9 586.6c0 0 27.9 10.2 55.1 38.9 11 11.4 18.9 25.4 23.6 40.5l38.7 144.2q1 3.4 1.6 7 0.2 1.3 0.4 3c3.8 31.8-22.1 59.3-54.1 57.7l-162.7-7.8c-23.6-1.2-42.3-20.7-42-44.4q0-0.6 0-1.2c0.7-24.6 21.9-43.7 46.6-42.4l120.1 6.7-19.9-103.9c0 0-14-62.6-7.4-98.3z"/>
						</g>
						<g id="&lt;Group&gt;">
							<path id="&lt;Path&gt;" class="s37" d="m808.1 797.8l-127.7-6.7c-13.8-1.2-23.7 2.3-30.8 7.9-25.9 20.5-15.8 62 14.5 69.8-19.5-4.7-33.9-22.3-33.6-43.1q0-0.6 0-1.2c0.7-24.6 21.9-43.7 46.6-42.4l120.1 6.7-19.9-103.9c0 0-9.6-42.8-9.2-77.8 1.1 14.5 6.6 35.2 6.6 35.2z"/>
						</g>
						<g id="&lt;Group&gt;">
							<path id="&lt;Path&gt;" class="s5" d="m835.2 877.9l-162.7-7.8c-22.4-1.1-40.4-18.8-41.9-40.8 6.9 14 21 23.9 37.6 24.7l162.7 7.8c31.9 1.6 57.8-25.9 54.1-57.7-0.1-1.1-0.3-2.2-0.4-3.1q-0.3-1.7-0.7-3.4l3.4 12.6c0.7 2.3 1.2 4.6 1.6 7q0.2 1.3 0.4 3c3.8 31.8-22.1 59.3-54.1 57.7z"/>
						</g>
						<path id="&lt;Path&gt;" class="s38" d="m840.5 655.1c5 11.7 3.2 23.6-3.9 26.7-7.2 3-17-4-22-15.7-5-11.7-3.2-23.7 4-26.8 7.1-3 17 4 21.9 15.8z"/>
					</g>
					<g id="&lt;Group&gt;">
						<g id="&lt;Group&gt;">
							<path id="&lt;Path&gt;" class="s20" d="m688.1 833.9q-0.1 0.3-0.1 0.7c-1.4 14.1-14.5 24.1-28.5 22.2l-53-7.4-17.8-3.3h-68.2c-3.3 0-5.8-3-5.2-6.3q0-0.1 0-0.2 0.4-1.9 0.9-3.7c3.1-10.7 10.5-19.6 20.7-24.1 2.7-1.1 4.4-1.5 4.4-1.5 26-19.3 65.4-3.1 65.4-3.1h56.2c9.8 0 18.3 5.5 22.5 13.5 2 3.9 3 8.4 2.7 13.2z"/>
						</g>
						<g id="&lt;Group&gt;">
							<path id="&lt;Path&gt;" class="s21" d="m656.8 846.8l-53-7.4-17.8-3.3h-68.2q-0.8 0-1.6-0.2c3.1-10.7 10.5-19.6 20.7-24.1 2.7-1.1 4.4-1.5 4.4-1.5 26-19.3 65.4-3.1 65.4-3.1h56.2q1.3 0 2.6 0.1c16 1.6 23.8 21.3 12.9 33.1-4.2 4.6-10.9 7.7-21.6 6.4z"/>
						</g>
						<g id="&lt;Group&gt;">
							<path id="&lt;Path&gt;" class="s39" d="m606.7 807.2c0 0 4.7 4.8 6.8 10.7 0.3 0.9 1.3 1.6 2.3 1.6 1.9 0 3.1-2 2.3-3.6-1.1-2.4-2.9-5.5-5.4-8.7z"/>
						</g>
					</g>
				</g>
			</g>
		</g>
		<g id="&lt;Group&gt;">
			<g id="&lt;Group&gt;">
				<g id="&lt;Group&gt;">
					<path id="&lt;Path&gt;" class="s25" d="m1063.7 891.7c0 3.8-1.6 7.2-4.1 9.7-2.5 2.5-5.9 4.1-9.7 4.1h-894.5c-7.6 0-13.8-6.2-13.8-13.8 0-3.8 1.5-7.3 4-9.8 2.5-2.4 6-4 9.8-4h894.5c7.6 0 13.8 6.2 13.8 13.8z"/>
				</g>
				<g id="&lt;Group&gt;">
					<path id="&lt;Path&gt;" class="s24" d="m971 891.7c0 3.8-1.6 7.2-4.1 9.7-2.4 2.5-5.9 4.1-9.7 4.1h-801.8c-7.6 0-13.8-6.2-13.8-13.8 0-3.8 1.5-7.3 4-9.8 2.5-2.4 6-4 9.8-4h801.8c7.6 0 13.8 6.2 13.8 13.8z"/>
				</g>
				<g id="&lt;Group&gt;">
					<path id="&lt;Path&gt;" class="s26" d="m190.7 897.4h-33.4c-4.2 0-7.6-3.4-7.6-7.6 0-4.2 3.4-7.7 7.6-7.7h33.4c4.2 0 7.7 3.5 7.7 7.7 0 4.2-3.5 7.6-7.7 7.6z"/>
					<path id="&lt;Path&gt;" class="s26" d="m220.8 897.4h-6.6c-4.2 0-7.7-3.4-7.7-7.6 0-4.2 3.5-7.7 7.7-7.7h6.6c4.2 0 7.6 3.5 7.6 7.7 0 4.2-3.4 7.6-7.6 7.6z"/>
				</g>
			</g>
			<g id="&lt;Group&gt;">
				<g id="&lt;Group&gt;">
					<g id="&lt;Group&gt;">
						<path id="&lt;Path&gt;" class="s24" d="m233.5 834.6l-6.5 29.2c-0.4 2.2-1.3 4.1-2.4 5.9-3.1 4.9-8.5 8-14.5 8.2q-0.3 0-0.6 0h-17.1q-0.3 0-0.5 0c-6.1-0.2-11.4-3.3-14.6-8.2-1.1-1.8-1.9-3.7-2.4-5.9l-6.4-29.2z"/>
					</g>
					<path id="&lt;Path&gt;" class="s26" d="m221.2 834.6l-6.4 29.3c-1.8 8.2-9.1 14-17.5 14h-4.9c-8.4 0-15.7-5.8-17.5-14l-6.4-29.3z"/>
					<g id="&lt;Group&gt;">
						<path id="&lt;Path&gt;" class="s25" d="m224.6 869.7c-3.1 4.9-8.5 8-14.5 8.2h-18.2c-6.1-0.2-11.4-3.3-14.6-8.2z"/>
					</g>
				</g>
				<g id="&lt;Group&gt;">
					<g id="&lt;Group&gt;">
						<path id="&lt;Path&gt;" class="s40" d="m197.2 834.6c0 0 7.7-117.4-103.9-120.9 0 0 21.7 49.1 43.3 63.4 0 0 16.8 0 28 1.7 0 0-9.9 4.4-19.3 9.1 0 0 24.7 33.8 40.8 46.7z"/>
					</g>
					<g id="&lt;Group&gt;">
						<path id="&lt;Path&gt;" class="s40" d="m206 834.6c0 0 10-130.6 98.7-130.6 0 0-11 35.9-35.2 67.8 0 0-10.7-2.5-17.8-4.4 0 0 6.2 5.9 9.2 13.2 0 0-23 39.6-41.1 54z"/>
					</g>
					<g id="&lt;Group&gt;">
						<path id="&lt;Path&gt;" class="s41" d="m203.3 834.6c0 0 24.5-151.5-74.2-197.5 0 0-3.1 39.3 5.5 58.3 0 0 10.4 1.8 18.4 5.8 0 0-9 2.1-14.3 4 0 0 6.3 19.2 12.5 30.6 0 0 12-2.6 24.7 0 0 0-11.1 6.4-17.6 10.9 0 0 16.8 55.4 35.2 87.9z"/>
					</g>
					<g id="&lt;Group&gt;">
						<path id="&lt;Path&gt;" class="s41" d="m197.2 834.6c0 0-31.9-203.6 72.3-203.6 0 0-7 35.2-17.8 50.6 0 0-11.7 1.5-17.4 3 0 0 10.4 4 14.5 8.2 0 0-5.6 25.3-12.1 41.2 0 0-3.7-0.8-12.4 0.2 0 0 6.1 2.7 8.9 5.5 0 0-7.3 51.6-23.1 94.9z"/>
					</g>
				</g>
			</g>
			<g id="&lt;Group&gt;">
				<g id="&lt;Group&gt;">
					<g id="&lt;Group&gt;">
						<path id="&lt;Path&gt;" class="s14" d="m535.7 762.4l-60.6-157.8c-3.8-9.8-13.2-16.3-23.7-16.3h-247.9c-9.9 0-16.7 9.9-13.2 19.1l60.7 157.8c3.7 9.8 13.2 16.3 23.6 16.3h248c9.8 0 16.6-9.9 13.1-19.1z"/>
					</g>
					<g id="&lt;Group&gt;">
						<path id="&lt;Path&gt;" class="s17" d="m493.8 781.5h-247.9c-10.5 0-19.9-6.5-23.7-16.3l-60.6-157.8c-3.6-9.2 3.2-19.1 13.1-19.1h247.9c10.5 0 19.9 6.5 23.7 16.3l60.6 157.8c3.6 9.2-3.2 19.1-13.1 19.1z"/>
					</g>
					<g id="&lt;Group&gt;">
						<path id="&lt;Path&gt;" class="s42" d="m507.4 763.9l-58.2-151.6c-3.8-9.8-13.2-16.3-23.7-16.3h-247.9c-9.4 0-15.9 8.9-13.6 17.6l-2.4-6.2c-3.6-9.2 3.2-19.1 13.1-19.1h247.9c10.5 0 19.9 6.5 23.7 16.3l60.6 157.8q0.3 0.7 0.5 1.5z"/>
					</g>
					<g id="&lt;Group&gt;">
						<path id="&lt;Path&gt;" class="s16" d="m343.8 724.9l-5.9 56.6h-63.7l13.8-58.5c0.6-2.8 3.1-4.8 6-4.8h43.7c3.6 0 6.4 3.1 6.1 6.7z"/>
					</g>
				</g>
				<g id="&lt;Group&gt;">
					<g id="&lt;Group&gt;">
						<path id="&lt;Path&gt;" class="s17" d="m411.3 877.9h-167.6v-18.1c0-4.9 4-8.9 8.9-8.9h149.9c4.9 0 8.8 4 8.8 8.9z"/>
					</g>
					<g id="&lt;Group&gt;">
						<path id="&lt;Path&gt;" class="s17" d="m411.3 877.9h-167.6v-18.1c0-4.9 4-8.9 8.9-8.9h149.9c4.9 0 8.8 4 8.8 8.9z"/>
					</g>
					<g id="&lt;Group&gt;">
						<path id="&lt;Path&gt;" class="s43" d="m411.3 859.8v3.2c0-4.9-3.9-8.8-8.8-8.8h-149.9c-4.9 0-8.9 3.9-8.9 8.8v-3.2c0-4.9 4-8.9 8.9-8.9h149.9c4.9 0 8.8 4 8.8 8.9z"/>
					</g>
					<g id="&lt;Group&gt;">
						<g id="&lt;Group&gt;">
							<path id="&lt;Path&gt;" class="s44" d="m411.3 859.8v18.1h-37.1v-18.1c0-4.9 4-8.9 8.9-8.9h19.4c4.9 0 8.8 4 8.8 8.9z"/>
						</g>
						<g id="&lt;Group&gt;">
							<path id="&lt;Path&gt;" class="s16" d="m407.9 852.8h-22.9c-4.5 0-8.2 3.7-8.2 8.2v16.9h-2.6v-18.1c0-4.9 4-8.9 8.9-8.9h19.4c2 0 3.9 0.7 5.4 1.9z"/>
						</g>
					</g>
				</g>
				<g id="&lt;Group&gt;">
					<path id="&lt;Path&gt;" class="s14" d="m392.5 738.1l-10.9-28.4c-0.7-1.7-2.4-2.9-4.2-2.9h-100.6c-1.7 0-2.9 1.8-2.3 3.4l10.9 28.4c0.7 1.7 2.3 2.9 4.2 2.9h100.5c1.8 0 3-1.8 2.4-3.4z"/>
				</g>
				<g id="&lt;Group&gt;">
					<g id="&lt;Group&gt;">
						<path id="&lt;Path&gt;" class="s16" d="m371.7 724.9l-12.1 115.3-1.1 10.7h-73l2.6-10.7 27.8-117.2c0.6-2.8 3.1-4.8 6-4.8h43.6c3.7 0 6.5 3.1 6.2 6.7z"/>
					</g>
					<g id="&lt;Group&gt;">
						<path id="&lt;Path&gt;" class="s17" d="m267.6 850.9l30.3-127.9c0.6-2.8 3.1-4.8 6-4.8h43.7c3.6 0 6.4 3.1 6.1 6.7l-13.2 126z"/>
					</g>
					<g id="&lt;Group&gt;">
						<path id="&lt;Path&gt;" class="s17" d="m353.7 724.9l-12.1 115.3-1.1 10.7h-73l2.6-10.7 27.8-117.2c0.6-2.8 3.1-4.8 6-4.8h43.7c3.6 0 6.4 3.1 6.1 6.7z"/>
					</g>
					<g id="&lt;Group&gt;">
						<path id="&lt;Path&gt;" class="s42" d="m353 721.5q-1-0.4-2.1-0.4h-43.7c-2.9 0-5.4 2-6 4.8l-29.7 125h-4l30.4-127.9c0.6-2.8 3.1-4.8 6-4.8h43.7c2.3 0 4.4 1.3 5.4 3.3z"/>
					</g>
					<g id="&lt;Group&gt;">
						<g id="&lt;Group&gt;">
							<path id="&lt;Path&gt;" class="s14" d="m333.2 743.5c0 5.3-4.3 9.6-9.6 9.6-5.3 0-9.7-4.3-9.7-9.6 0-5.3 4.4-9.6 9.7-9.6 5.3 0 9.6 4.3 9.6 9.6z"/>
						</g>
						<g id="&lt;Group&gt;">
							<path id="&lt;Path&gt;" class="s45" d="m328.3 745.4h-9.5c-1 0-1.8-0.9-1.8-1.9 0-1.1 0.8-1.9 1.8-1.9h9.5c1 0 1.9 0.8 1.9 1.9 0 1-0.9 1.9-1.9 1.9z"/>
						</g>
					</g>
					<path id="&lt;Path&gt;" class="s45" d="m359.6 840.2l-1.1 10.7h-91l2.6-10.7z"/>
				</g>
			</g>
			<g id="&lt;Group&gt;">
				<path id="&lt;Path&gt;" class="s24" d="m995.2 757l-0.8 7.1-1.4 12.7-0.7 6.6-5.2 46.2-1 8.8-3.2 28.6-1.2 10.9h-66.2l-1.5-10.9-3.7-28.6-1.2-8.8-6-46.2-0.9-6.6-1.6-12.7-1-7.1z"/>
				<g id="&lt;Group&gt;">
					<path id="&lt;Path&gt;" class="s25" d="m993 776.8l-0.7 6.6-5.2 46.2-1 8.8h-75.8l-1.2-8.8-6-46.2-0.9-6.6z"/>
				</g>
				<g id="&lt;Group&gt;">
					<path id="&lt;Path&gt;" class="s25" d="m995.2 757l-0.8 7.1h-93.8l-1-7.1z"/>
				</g>
				<g id="&lt;Group&gt;">
					<path id="&lt;Path&gt;" class="s25" d="m982.9 867l-1.2 10.9h-66.2l-1.5-10.9z"/>
				</g>
				<g id="&lt;Group&gt;">
					<g id="&lt;Group&gt;">
						<path id="&lt;Path&gt;" class="s46" d="m994.5 787.3l-4.6 40.9c-0.3 2.3-2.2 4.1-4.6 4.1h-74.4c-2.3 0-4.3-1.7-4.6-4l-5.3-40.9c-0.3-2.1 1.3-4 3.5-4h86.4c2.2 0 3.8 1.8 3.6 3.9z"/>
					</g>
					<path id="&lt;Path&gt;" class="s0" d="m981.4 787.3l-4.6 40.9c-0.2 2.3-2.2 4.1-4.5 4.1h-61.4c-2.3 0-4.3-1.7-4.6-4l-5.3-40.9c-0.3-2.1 1.3-4 3.5-4h73.4c2.1 0 3.8 1.8 3.5 3.9z"/>
				</g>
				<g id="&lt;Group&gt;">
					<g id="&lt;Group&gt;">
						<g id="&lt;Group&gt;">
							<path id="&lt;Path&gt;" class="s46" d="m1004.7 747.5c0 2.6-1.1 5-2.8 6.7-1.7 1.7-4.1 2.8-6.7 2.8h-97.9c-5.2 0-9.4-4.3-9.4-9.5 0-2.6 1-5 2.7-6.7 1.8-1.7 4.1-2.7 6.7-2.7h97.9c5.3 0 9.5 4.2 9.5 9.4z"/>
						</g>
						<g id="&lt;Group&gt;">
							<path id="&lt;Path&gt;" class="s0" d="m986.5 747.5c0 2.6-1.1 5-2.8 6.7-1.7 1.7-4.1 2.8-6.7 2.8h-79.7c-5.2 0-9.4-4.3-9.4-9.5 0-2.6 1-5 2.7-6.7 1.8-1.7 4.1-2.7 6.7-2.7h79.7c5.3 0 9.5 4.2 9.5 9.4z"/>
						</g>
					</g>
					<path id="&lt;Path&gt;" class="s0" d="m995.2 738.1h-95.6l2.3-4.7 3.3-6.7c0.7-1.6 2.3-2.6 4-2.6h76.4c1.8 0 3.3 1 4.1 2.6l3.3 6.7z"/>
					<path id="&lt;Path&gt;" class="s47" d="m976.2 724.1h-11.7v-1.4c0-1.3 1-2.3 2.3-2.3h7.1c1.2 0 2.3 1 2.3 2.3z"/>
					<path id="&lt;Path&gt;" class="s48" d="m995.2 738.1h-95.6l2.3-4.7h91.1z"/>
				</g>
			</g>
			<g id="&lt;Group&gt;">
				<g id="&lt;Group&gt;">
					<g id="&lt;Group&gt;">
						<path id="&lt;Path&gt;" class="s42" d="m458.1 905.7h-111.6c-12.1 0-22-9.8-22-21.9v-5.8h6v5.8c0 8.8 7.2 15.9 16 15.9h111.6c8.8 0 16-7.1 16-15.9 0-5.9 2.3-11.5 6.5-15.6 4.2-4.2 9.8-6.4 15.7-6.3l13.4 0.1v6l-13.5-0.1c-4.3-0.1-8.3 1.5-11.4 4.6-3.1 3-4.7 7-4.7 11.3 0 12.1-9.9 21.9-22 21.9z"/>
					</g>
				</g>
			</g>
		</g>
	</g>
</svg>