<svg version="1.2" xmlns="http://www.w3.org/2000/svg" viewBox="0 0 1000 1000" width="1000" height="1000">
	<title>490748-PH5JOG-553</title>
	<defs>
		<clipPath clipPathUnits="userSpaceOnUse" id="cp1">
			<path d="m536.14 619.41c0 0 24.76-21.18 29.82-30.27 5.05-9.1 29.81-61.15 41.44-63.68 11.62-2.53 48.01 26.28 63.17 34.87 15.16 8.59 58.11-1.47 69.23 12.15 11.12 13.62 30.83 47.99 49.02 85.39 18.2 37.39 29.31 77.82 39.93 96.52 10.61 18.7 24.25 39.42 55.59 83.89 31.33 44.47 108.15 161.72 108.15 161.72h-178.4c0 0-44.98-134.93-69.74-170.81-24.76-35.89-41.44-35.38-62.16-41.95-20.72-6.57-70.56-25.86-97.19-55.89-26.62-30.02-36.46-11.84-49.67-40.13-6.66-14.28 12.16-16.64 6.1-36.99-6.06-20.35 29.02-21.2 39.01-11.02 4.62 4.71 11.95 11.57 7.33 30.2 0 0 18.04-0.89 26.16 7.7 0 0 10.65-1.62 19.24 2.22 0 0 25.77-21.42 25.27-44.67-0.51-23.24-7.09-34.3-44.51-52.05 0 0-13.46 17.69-23.64 18.7 0 0-13.53 14.8-20.32 19.4-6.79 4.6-27.77 11.84-33.83-5.3z"/>
		</clipPath>
		<clipPath clipPathUnits="userSpaceOnUse" id="cp2">
			<path d="m362.26 493.7c-28.46 6.4-44.46 22.61-50.21 29.56q-0.64 0.75-1.25 1.56c-0.82 1.07-1.23 1.69-1.23 1.69 0 0-17.82 2.95-23.94 13.07 0 0-10.75 0.66-18.34 6.23 0 0-10.52-5.48-19.97-14.73-26.64 37.24-32.71 89.18-14.61 131.3 2.83-1.47 5.7-2.96 8.64-4.64 18.86-10.8 63.49-40.2 83.17-75.17 16.06-28.54 27.97-23.36 35.57-37.01q0 0 0.01 0c8.47-8.95 10.42-16.81 29.16-27.91 10.11-5.99-1.85-29.59-27-23.95z"/>
		</clipPath>
	</defs>
	<style>
		tspan { white-space:pre } 
		.s0 { opacity: .1;mix-blend-mode: multiply;fill: #000000 } 
		.s1 { fill: #d89371 } 
		.s2 { fill: #edb08e } 
		.s3 { fill: #00a8a8 } 
		.s4 { fill: #ffffff } 
		.s5 { fill: #b3b3b3 } 
		.s6 { fill: #d6d6d6 } 
		.s7 { fill: #cccccc } 
		.s8 { fill: none;stroke: #39b54a;stroke-linecap: round;stroke-linejoin: round;stroke-width: 11.6 } 
		.t9 { font-size: 14px;fill: #808080;font-weight: 700;font-family: "Montserrat-Bold", "Montserrat" } 
		.s10 { fill: #000000 } 
		.s11 { fill: #7f7f7f } 
		.s12 { fill: #666666 } 
		.s13 { fill: #fbb03b } 
		.s14 { opacity: .1;fill: #ffffff } 
	</style>
	<g id="BACKGROUND">
	</g>
	<g id="OBJECTS">
		<path id="&lt;Compound Path&gt;" fill-rule="evenodd" class="s0" d="m401 538.4c-18.7 10.7-20.7 18.3-29.2 27q0 0 0 0c-7.6 13.1-19.5 8.1-35.5 35.7-10.2 17.5-27.1 33.5-43.6 46.4q0 0 0 0c-10.6 8.2-21 15.2-29.5 20.3q0 0.1-0.1 0.1-1.1 0.7-2.1 1.3-0.2 0.1-0.3 0.2-0.9 0.5-1.9 1.1-0.2 0.1-0.4 0.2-0.8 0.5-1.6 0.9-0.5 0.3-0.9 0.6-0.5 0.3-1 0.5-0.9 0.6-1.8 1.1c-2.9 1.6-5.8 3-8.6 4.4-15.4 7.8-29.3 15-43.3 47.9-13.7 32.1-38 215.4-46.1 278.4h-143.4v-100.5c19-50.9 42.8-113.9 54.6-140.7 21.2-48.5 30.2-70.8 36.6-90.6 6.4-19.9 8.7-60.3 18.6-99.4 9.9-39 21.9-75.5 29.9-90.6 8-15.1 82.7-71.5 119.4-71.5 11.9 0 51.2 40.3 58 47.8 6.9 7.6 35.6 22.5 35.6 22.5-1.1 8.3-6.6 12-12.9 13.4-4.1 5.2-11.2 11.4-18.6 14.4 8.1 6.1 15.8 11 20.8 12.6 5.9-2.6 12.6-5 20.3-6.7 25.2-5.4 37.1 17.4 27 23.2zm-79.7 8.6c0 0 0.2-0.3 0.5-0.7-15.6-7.6-23.5-34.7-36.1-23.8-6.3 5.5-17.5 17.1-29.3 26.6 1 0.8 1.9 1.6 2.7 2.3 9.4 8.9 19.9 14.2 19.9 14.2 7.6-5.4 18.4-6 18.4-6 6.1-9.8 23.9-12.6 23.9-12.6z"/>
		<g id="&lt;Group&gt;">
			<path id="&lt;Path&gt;" class="s1" d="m345 501.2c-4.6 0-13.9-5.9-23.8-13.6 14.2-6.2 27.7-24.2 19.8-24.2-10.5 0-45-30.4-57.1-44.5-12-14.2-63.9 16.1-76.9 34.9 0 0-16 40.2 0 50.2q0 0 0 0c-3.4 12.7-6.2 31.4 4 37.8 16 10 50-29 63-40.6 13-11.6 21 18.6 37.6 25.3 16.6 6.7 43.9-25.3 33.4-25.3z"/>
		</g>
		<g id="&lt;Group&gt;">
			<path id="&lt;Path&gt;" class="s2" d="m317.1 435.5c-6.9-7.8-46.1-49.4-58-49.4-36.8 0-111.5 58.3-119.5 73.9-8 15.7-20 53.4-29.8 93.8-9.9 40.4-12.2 82.3-18.6 102.8-6.5 20.5-15.4 43.7-36.6 93.8-11.8 27.7-35.7 92.9-54.6 145.6v104h143.4c8-65.2 32.3-254.9 46.1-288.1 14-34.1 27.9-41.5 43.2-49.5 11.3-43.9 11.3-65.4 14.6-131.3-6.4-6.3-23.2-15.9-25-25.1-4.4-22.8-15.3-42.6 30.7-69.7 0 0 33.5 21.4 43.7 20.2 0 0 16.4 11.6 24 14.7 7.6 3 29.6 5.7 31.9-12.4 0 0-28.7-15.4-35.5-23.3z"/>
		</g>
		<g id="&lt;Group&gt;">
			<path id="&lt;Path&gt;" class="s0" d="m689 817h-378c-14.9 0-27.1-12.2-27.1-27.1v-559.6c0-15 12.2-27.1 27.1-27.1h378c14.9 0 27.1 12.1 27.1 27.1v559.6c0 14.9-12.2 27.1-27.1 27.1z"/>
			<g id="&lt;Group&gt;">
				<path id="&lt;Path&gt;" class="s3" d="m689 805.2h-378c-14.9 0-27.1-12.2-27.1-27.1v-559.6c0-15 12.2-27.1 27.1-27.1h378c14.9 0 27.1 12.1 27.1 27.1v559.6c0 14.9-12.2 27.1-27.1 27.1z"/>
			</g>
			<path id="&lt;Path&gt;" class="s4" d="m691 783h-382v-569.4h382z"/>
			<g id="&lt;Group&gt;">
				<path id="&lt;Path&gt;" class="s5" d="m653 335.2h-232v-19.2h232z"/>
			</g>
			<path id="&lt;Path&gt;" class="s6" d="m653 370.1h-232v-19.2h232z"/>
			<path id="&lt;Path&gt;" class="s6" d="m653 405h-308v-19.2h308z"/>
			<path id="&lt;Path&gt;" class="s6" d="m421.2 213.6c0.1 5.3 4.5 9.6 9.8 9.6h138c5.3 0 9.7-4.3 9.8-9.6z"/>
			<path id="&lt;Compound Path&gt;" fill-rule="evenodd" class="s6" d="m578.8 174.7v33.4c0 5.5-4.4 9.9-9.8 9.9h-138c-5.4 0-9.8-4.4-9.8-9.9v-33.4c0-5.5 4.4-9.9 9.8-9.9h47.7c0-11.8 9.5-21.3 21.3-21.3 11.8 0 21.3 9.5 21.3 21.3h47.7c5.4 0 9.8 4.4 9.8 9.9zm-70.4-9.9c0-4.6-3.8-8.4-8.4-8.4-4.6 0-8.4 3.8-8.4 8.4 0 4.6 3.8 8.4 8.4 8.4 4.6 0 8.4-3.8 8.4-8.4z"/>
			<g id="&lt;Group&gt;">
				<path id="&lt;Path&gt;" class="s7" d="m421.2 199.3v8.8c0 5.5 4.4 9.9 9.8 9.9h138c5.4 0 9.8-4.4 9.8-9.9v-8.8z"/>
			</g>
			<g id="&lt;Group&gt;">
				<path id="&lt;Compound Path&gt;" fill-rule="evenodd" class="s6" d="m403.7 370.1h-58.7v-54.1h58.7zm-48.7-44.1v34.1h38.7v-34.1z"/>
			</g>
			<g id="&lt;Group&gt;">
				<path id="&lt;Path&gt;" class="s5" d="m653 456.5h-232v-19.2h232z"/>
			</g>
			<path id="&lt;Path&gt;" class="s6" d="m653 491.4h-232v-19.2h232z"/>
			<path id="&lt;Path&gt;" class="s6" d="m653 526.3h-308v-19.2h308z"/>
			<path id="&lt;Path&gt;" class="s6" d="m482 658.6h-137v19.2h137z"/>
			<path id="&lt;Path&gt;" class="s6" d="m420 692.3h-75v19.2h75z"/>
			<path id="&lt;Path&gt;" class="s6" d="m653.6 658.6h-137v19.2h137z"/>
			<path id="&lt;Path&gt;" class="s6" d="m591.6 692.3h-75v19.2h75z"/>
			<g id="&lt;Group&gt;">
				<path id="&lt;Compound Path&gt;" fill-rule="evenodd" class="s6" d="m403.7 491.4h-58.7v-54.1h58.7zm-48.7-44.1v34.1h38.7v-34.1z"/>
			</g>
			<g id="&lt;Group&gt;">
				<path id="&lt;Path&gt;" class="s5" d="m653 577.4h-308v-18.9h308z"/>
			</g>
			<g id="&lt;Group&gt;">
				<path id="&lt;Compound Path&gt;" fill-rule="evenodd" class="s6" d="m482.4 644.9h-137.4v-54.1h137.4zm-127.4-44.1v34.1h117.4v-34.1z"/>
			</g>
			<g id="&lt;Group&gt;">
				<path id="&lt;Compound Path&gt;" fill-rule="evenodd" class="s6" d="m653 644.9h-137.4v-54.1h137.4zm-127.4-44.1v34.1h117.4v-34.1z"/>
			</g>
			<path id="&lt;Path&gt;" class="s8" d="m408.8 317.9l-34.6 34.6-18-18"/>
			<path id="&lt;Path&gt;" class="s8" d="m408.8 437.3l-34.6 34.6-18-18.1"/>
			<text id="REGISTRATION FORM
" style="transform: matrix(2,0,0,2,343.962,281.084)" >
				<tspan x="0" y="0" class="t9">REGISTRATION FORM
</tspan>
			</text>
		</g>
		<path id="&lt;Path&gt;" class="s0" d="m374 515.2c-7.7 1.7-14.4 4.1-20.3 6.7-3-0.9-6.9-3-11.3-5.9q-5.1 4.4-10.4 8.5c-6.2 4.7-13.4 9.8-21.1 12.8 3.2 3.6 6.8 7 10.9 9-0.3 0.4-0.5 0.6-0.5 0.6 0 0-17.8 2.9-23.9 12.7 0 0-7.3 0.4-14.1 3.5v51.4h0.7v39.5q4.3-3.1 8.7-6.5 0 0 0 0c16.5-12.9 33.4-28.9 43.6-46.4 16-27.6 27.9-22.6 35.5-35.7q0 0 0 0c8.5-8.7 10.5-16.3 29.2-27 10.1-5.8-1.8-28.6-27-23.2z"/>
		<g id="&lt;Group&gt;">
			<path id="&lt;Compound Path&gt;" fill-rule="evenodd" class="s0" d="m585 775c-26.6-29.9-36.5-11.8-49.7-39.9-6.6-14.2 12.2-16.6 6.1-36.8-1.5-5.2-0.4-9.2 2.4-11.9l-0.7-0.2c-0.5 0.9-1.5 1.5-2.5 1.2l-5.1-1.4c-1.2-0.3-1.8-1.6-1.5-3l0.6-2.2-17.1-7.5c-3.2-1-5.6-2.5-6-5.3l-4.9-2.1c-1.3-0.4-2.3-1.1-1.9-2.7 0.5-1.6 1.6-1.7 3-1.4l5.3 0.6q0.1-0.1 0.1-0.1 0.5-0.6 1-0.9 1-0.7 2.4-0.9c1.3-0.2 2.7 0 4.3 0.4l16.4 1.8c0.7-0.6 1.9-1.6 3.3-2.9q0.3-0.5 0.8-0.7c7.6-6.7 21.1-19.2 24.7-25.6 5-9.1 29.8-60.9 41.4-63.4 8.8-1.9 31.6 13.9 48.8 25.5q1 0.7 2 1.4 0.3 0.1 0.5 0.3 0.8 0.5 1.5 1 0.3 0.2 0.7 0.4 0.6 0.5 1.3 0.9 0.3 0.2 0.7 0.4 0.6 0.4 1.2 0.8 0.3 0.2 0.7 0.5 0.5 0.3 1 0.6 0.4 0.3 0.9 0.6 0.4 0.2 0.8 0.5 0.5 0.3 0.9 0.6 0.4 0.2 0.7 0.4 0.8 0.4 1.5 0.8 0.7 0.4 1.5 0.8 0.3 0.1 0.7 0.2 0.5 0.2 0.9 0.4 0.3 0.1 0.7 0.2 0.5 0.2 1.1 0.4 0.3 0 0.6 0.1 0.7 0.2 1.3 0.3 0.4 0.1 0.7 0.1 0.7 0.2 1.4 0.3 0.3 0.1 0.6 0.1 0.7 0.1 1.5 0.2 0.4 0.1 0.7 0.1 0.8 0.1 1.6 0.2 0.2 0 0.4 0 1 0.1 1.9 0.2 0.2 0 0.4 0 1 0.1 2 0.2 0.3 0 0.6 0 0.9 0 1.9 0.1 0.3 0 0.5 0 2.3 0.1 4.6 0.1 0.1 0 0.3 0c17.2 0.4 36.4-0.3 43.3 8.1 11.1 13.6 30.8 47.8 49 85 4.9 9.9 9.2 20 13.1 29.8 4.6 1.5 7.1 7 5.6 12.6q-0.1 0.4-0.3 0.9c8.4 21.9 15.1 41.4 21.5 52.8 10.7 18.6 24.3 39.2 55.6 83.5 19.1 26.9 54.9 80.5 80.1 118.5h-165.1c-15.4-42.6-39.2-104.9-54.9-127.6-24.8-35.7-41.5-35.2-62.2-41.7q-0.9-0.3-1.9-0.7-0.3 0-0.6-0.2-0.7-0.2-1.4-0.4-0.4-0.1-0.8-0.3-0.7-0.2-1.4-0.5-0.4-0.1-0.9-0.3-0.7-0.2-1.4-0.5-0.5-0.1-0.9-0.3-0.9-0.3-1.9-0.7-0.3-0.1-0.5-0.2-1.3-0.4-2.6-0.9-0.3-0.1-0.7-0.3-0.9-0.3-1.9-0.7-0.5-0.2-1-0.4-0.9-0.3-1.8-0.7-0.5-0.2-1-0.4-0.9-0.4-1.8-0.7-0.6-0.3-1.1-0.5-1-0.4-2-0.8-0.5-0.2-1-0.4-1.4-0.6-2.9-1.3-0.3-0.1-0.5-0.2-1.3-0.5-2.6-1.1-0.5-0.3-1.1-0.5-0.9-0.5-1.9-0.9-0.7-0.3-1.3-0.6-0.9-0.4-1.9-0.9-0.6-0.3-1.3-0.6-1-0.5-2-1-0.6-0.2-1.2-0.5-1.2-0.7-2.5-1.3-0.3-0.2-0.7-0.3-1.5-0.8-3.1-1.7-0.6-0.3-1.1-0.5-1.1-0.6-2.1-1.2-0.7-0.3-1.3-0.7-1-0.5-2-1.1-0.6-0.4-1.3-0.7-1-0.6-2-1.2-0.6-0.3-1.2-0.7-1.1-0.7-2.2-1.3-0.5-0.3-1-0.6-1.6-1-3.1-2-0.4-0.2-0.8-0.5-1.2-0.7-2.3-1.5-0.6-0.4-1.2-0.8-1-0.6-1.9-1.3-0.6-0.4-1.2-0.9-1-0.6-1.9-1.3-0.6-0.4-1.2-0.9-1-0.7-1.9-1.4-0.5-0.4-1.1-0.8-1.3-1-2.6-2.1-0.1-0.1-0.2-0.2 0 0 0 0c-5.1-4.1-9.8-8.5-14-13.2zm-7.4-105.5q-1.6-1.8-2.8-4.5c-1.2 1.1-2.4 2.1-3.5 2.9zm43.1 10.7l20.6 5.1q-1.1-1.9-1.9-4.4c0 0 8.5-8.7 15.8-17.3q-0.6-1.5-1.4-2.9c-4.5 4.7-11.1 11.2-15.3 14-3.5 2.4-10.7 5.4-17.8 5.5zm-25-6.2l15.5 3.9c-2.4-1.5-4.5-3.8-6-7.1-2.6 1.3-5.9 2.5-9.5 3.2zm18.2 51.1c0 0 2.3-0.4 5.6-0.4q0.7 0 1.4 0 0.1 0 0.2 0 0.6 0.1 1.3 0.1 0.2 0 0.3 0 0.6 0.1 1.2 0.2 0.3 0 0.6 0 0.5 0.1 1.1 0.2 0.3 0 0.6 0.1 0.5 0 1.1 0.2 0.3 0 0.6 0.1 0.6 0.1 1.1 0.3 0.3 0 0.7 0.1 0.6 0.2 1.1 0.4 0.3 0.1 0.6 0.2 0.9 0.3 1.7 0.6 0 0.1 0 0.1 0 0 0.1-0.1 0.2-0.1 0.4-0.3 0 0 0-0.1c1.5-1.2 6.1-5.4 11-11.4l-56.4-16.2c1.3 4.4 1.5 10.2-0.5 18.2 0 0 18.1-0.9 26.2 7.7z"/>
			<g id="&lt;Group&gt;">
				<g id="&lt;Group&gt;">
					<path id="&lt;Path&gt;" class="s1" d="m652.1 587.8v-13h-39.7c-4.4 7.2-6.9 12.2-8.2 14.5-5.1 9.1-29.8 30.3-29.8 30.3 6 17.1 27 9.9 33.8 5.3 6.8-4.6 20.3-19.4 20.3-19.4 0.7-0.1 31.1-21 23.6-17.7z"/>
				</g>
				<g id="&lt;Group&gt;">
					<path id="&lt;Path&gt;" class="s1" d="m682.5 593.4v-18.6h-36.1c-6.7 10.3-10.2 17.3-11.8 20.2-5.1 9.1-29.8 30.2-29.8 30.2 6 17.2 27 10 33.8 5.3 6.8-4.6 20.3-19.4 20.3-19.4 0.7 0 31-21 23.6-17.7z"/>
				</g>
				<g id="&lt;Group&gt;">
					<path id="&lt;Path&gt;" class="s1" d="m704.6 604.9v-30.1h-23.5c-10.2 16.5-14.9 27.8-16.6 31.7-4.3 9-25 30.2-25 30.2 5.1 17.2 22.6 9.9 28.3 5.3 5.7-4.6 17.1-19.4 17.1-19.4 0.5 0 26-21 19.7-17.7z"/>
				</g>
				<g id="&lt;Clip Group&gt;">
					<g id="&lt;Group&gt;" style="opacity: .1">
						<path id="&lt;Path&gt;" class="s10" d="m794.3 707.6l-15.7-5q-0.1-0.3-0.2-0.6-0.1-0.3-0.2-0.6-0.2-0.4-0.4-0.9-0.1-0.3-0.2-0.6-0.2-0.4-0.4-0.8-0.3-0.6-0.7-1.2-0.2-0.3-0.4-0.5-0.3-0.4-0.5-0.7-0.2-0.3-0.5-0.5-0.2-0.4-0.5-0.7-0.3-0.2-0.5-0.4-0.3-0.3-0.7-0.6-0.2-0.2-0.4-0.4-0.4-0.2-0.8-0.5-0.2-0.2-0.5-0.3-0.4-0.3-0.9-0.5-0.2-0.1-0.4-0.2-0.7-0.3-1.5-0.6l-113-35.9c0.1-1.3-0.5-2.5-1.7-2.9l-7-2.4c-1.2-0.4-2.5 0.2-3.3 1.5l-125.2-39.8c0.1-1.2-0.5-2.4-1.5-2.7l-5.7-1.9c-1.3-0.5-2.7 0.4-3.2 1.9l-0.9 2.5-20.6-3.7c-2.8-0.9-5.5-1.2-7.5 0.1q-0.7 0.4-1.3 1.1l-5.9-1.1c-1.4-0.4-2.8-0.4-3.3 1.4-0.6 1.7 0.4 2.5 1.8 3.1l5.3 2.7c0.3 3.2 2.9 5.1 6.3 6.3l18.6 9.6-0.8 2.5c-0.5 1.5 0.1 3.1 1.4 3.5l5.6 1.9c1.1 0.4 2.2-0.2 2.9-1.2l123.6 44.5c-0.1 1.4 0.5 2.8 1.8 3.2l6.9 2.3c1.2 0.4 2.4-0.1 3.2-1.3l111.6 40.2c4.7 1.7 9.9 0.6 14-2.5l4.5 1.6 11 3.9c5.4 2 11.6-1.7 13.7-8.1 2.2-6.3-0.5-13-5.9-14.7z"/>
					</g>
					<g id="&lt;Group&gt;" clip-path="url(#cp1)">
						<path id="&lt;Path&gt;" class="s2" d="m536.1 619.4c0 0 24.8-21.2 29.9-30.3 5-9.1 29.8-61.1 41.4-63.6 11.6-2.6 48 26.2 63.2 34.8 15.1 8.6 58.1-1.4 69.2 12.2 11.1 13.6 30.8 48 49 85.4 18.2 37.4 29.3 77.8 39.9 96.5 10.7 18.7 24.3 39.4 55.6 83.9 31.4 44.5 108.2 161.7 108.2 161.7h-178.4c0 0-45-134.9-69.7-170.8-24.8-35.9-41.5-35.4-62.2-42-20.7-6.5-70.6-25.8-97.2-55.8-26.6-30.1-36.5-11.9-49.7-40.2-6.6-14.3 12.2-16.6 6.1-37-6-20.3 29-21.2 39-11 4.7 4.7 12 11.6 7.4 30.2 0 0 18-0.9 26.1 7.7 0 0 10.7-1.6 19.3 2.2 0 0 25.7-21.4 25.2-44.6-0.5-23.3-7.1-34.3-44.5-52.1 0 0-13.4 17.7-23.6 18.7 0 0-13.5 14.8-20.3 19.4-6.8 4.6-27.8 11.8-33.9-5.3z"/>
					</g>
				</g>
				<g id="&lt;Group&gt;">
					<g id="&lt;Group&gt;">
						<g id="&lt;Group&gt;" style="opacity: .1">
							<path id="&lt;Path&gt;" class="s10" d="m690.3 776c-12.1-4.2-52.3-18.3-91.3-31.4 27.5 22.5 65.7 37.1 83.2 42.6 20.7 6.6 37.4 6.1 62.2 42 24.7 35.9 69.7 170.8 69.7 170.8h13.1c0 0-50-140.2-74.7-178.8-24.8-38.7-41.5-38.2-62.2-45.2z"/>
						</g>
					</g>
				</g>
				<g id="&lt;Group&gt;">
					<g id="&lt;Group&gt;">
						<path id="&lt;Path&gt;" class="s11" d="m788.1 707.2l23.9 6.9c5.4 1.6 11.3-2.4 13.1-8.9 1.7-6.5-1.4-13-6.9-14.3l-24.1-6.1z"/>
					</g>
					<g id="&lt;Group&gt;">
						<path id="&lt;Path&gt;" class="s11" d="m788.1 707.2l23.9 6.9c5.4 1.6 11.3-2.4 13.1-8.9 1.7-6.5-1.4-13-6.9-14.3l-24.1-6.1z"/>
					</g>
					<g id="&lt;Group&gt;">
						<path id="&lt;Path&gt;" class="s11" d="m788.1 707.2l23.9 6.9c5.4 1.6 11.3-2.4 13.1-8.9 1.7-6.5-1.4-13-6.9-14.3l-24.1-6.1z"/>
					</g>
					<g id="&lt;Group&gt;">
						<path id="&lt;Path&gt;" class="s12" d="m807.2 700.4c1.2-4.4 0.9-8.7-0.4-12.4l-12.7-3.2-6 22.4 12.6 3.7c3-2.6 5.3-6.2 6.5-10.5z"/>
					</g>
					<g id="&lt;Group&gt;">
						<path id="&lt;Path&gt;" class="s11" d="m489.2 617.3l7 3 1.8-6.7-7.6-0.9c-1.5-0.3-2.8-0.2-3.3 1.6-0.4 1.7 0.6 2.5 2.1 3z"/>
					</g>
					<g id="&lt;Group&gt;">
						<path id="&lt;Path&gt;" class="s11" d="m501.3 625.5l21.5 9.5 5.6-20.7-23.3-2.6c-4.6-1.2-8.7-0.7-10.1 4.7-1.5 5.4 1.8 7.8 6.3 9.1z"/>
					</g>
					<g id="&lt;Group&gt;">
						<path id="&lt;Path&gt;" class="s12" d="m525.3 625.9l3.1-11.6-23.3-2.6c-4.6-1.2-8.7-0.7-10.1 4.7-0.2 0.5-0.2 0.9-0.3 1.3z"/>
					</g>
					<g id="&lt;Group&gt;">
						<path id="&lt;Path&gt;" class="s11" d="m526.7 639.1l255.5 73.9c8.5 2.4 17.7-3.8 20.4-13.9 2.7-10.1-2.1-20-10.7-22.2l-258.1-64.2z"/>
					</g>
					<g id="&lt;Group&gt;">
						<path id="&lt;Path&gt;" class="s12" d="m803.3 695.1c0.6-8.6-3.9-16.3-11.4-18.2l-258.1-64.2-2.5 9.3z"/>
					</g>
					<g id="&lt;Group&gt;">
						<path id="&lt;Path&gt;" class="s13" d="m697.6 670.9c-0.7 2.5 0.8 5.1 3.3 5.8l83.2 24.1c2.9 0.8 6.1-1.3 7-4.8 0.9-3.4-0.7-6.9-3.7-7.6l-84.1-20.9c-2.5-0.6-5 0.9-5.7 3.4z"/>
					</g>
					<g id="&lt;Group&gt;">
						<path id="&lt;Path&gt;" class="s13" d="m667.9 643.6l7.1 1.9c1.4 0.4 2.2 2.1 1.8 3.8l-8.1 29.8c-0.4 1.7-2 2.8-3.4 2.4l-7.1-1.9c-1.5-0.4-2.3-2.1-1.8-3.8l8-29.8c0.4-1.8 2-2.8 3.5-2.4z"/>
					</g>
					<g id="&lt;Group&gt;">
						<path id="&lt;Path&gt;" class="s13" d="m529.7 609.4l5.7 1.5c1.3 0.4 2 1.9 1.6 3.4l-6.7 25c-0.4 1.5-1.8 2.5-3.1 2.1l-5.7-1.5c-1.3-0.4-2.1-1.9-1.7-3.5l6.7-24.9c0.5-1.5 1.9-2.5 3.2-2.1z"/>
					</g>
				</g>
				<g id="&lt;Group&gt;">
					<path id="&lt;Path&gt;" class="s2" d="m592.3 673.5c-2.7-0.2-4.5-0.1-4.5-0.1 4.6-18.6-2.7-25.5-7.4-30.2-10-10.2-45-9.3-39 11 6.1 20.4-12.7 22.7-6.1 37 13.2 28.3 23.1 10.1 49.7 40.2 2.3 2.5 4.7 5 7.3 7.3z"/>
				</g>
				<g id="&lt;Group&gt;">
					<path id="&lt;Path&gt;" class="s2" d="m592.3 541.6c-11.1 16.8-23 41.5-26.3 47.5-5.1 9.1-29.9 30.3-29.9 30.3 6.1 17.1 27.1 9.9 33.9 5.3 6.8-4.6 20.3-19.4 20.3-19.4q1-0.1 2-0.4z"/>
				</g>
				<g id="&lt;Group&gt;" style="opacity: .1">
					<path id="&lt;Path&gt;" class="s10" d="m656.2 551.1c0.5 0.3 16.3 14 53.2 29.4 36.9 15.5-2.8-16-2.8-16-14-0.2-28.5 0.1-36-4.2-3.8-2.1-8.8-5.4-14.4-9.2z"/>
				</g>
				<g id="&lt;Group&gt;" style="opacity: .1">
					<path id="&lt;Path&gt;" class="s10" d="m613.9 586.6c0 0-4.6-4-6.3-10.6 0 0-1.2 11.1 2.4 15.3z"/>
				</g>
				<g id="&lt;Group&gt;" style="opacity: .1">
					<path id="&lt;Path&gt;" class="s10" d="m535.3 691.2c0 0 5.6-14.6 18.7-14.3 0 0-15.9 8.2-17.3 17.1z"/>
				</g>
			</g>
		</g>
		<g id="&lt;Clip Group&gt;">
			<path id="&lt;Path&gt;" class="s14" d="m376.2 503.8c-12.8 3.7-26.3 14.3-23.5 17.3 2.7 3 15.3 14.7 18.6 11.2 3.4-3.5 21.2-10.7 16.6-18.8-4.7-8.1-8-10.8-11.7-9.7z"/>
			<g id="&lt;Group&gt;" style="opacity: .1">
				<path id="&lt;Path&gt;" class="s10" d="m339.3 540c2.4 0.1 4.6 0.8 6.7 1.6q3.2 1.3 6.1 3.2 2.8 1.9 5.2 4.3c1.5 1.7 3 3.5 4 5.6-2.2-0.9-4.1-2-6-3.1q-2.8-1.7-5.5-3.5-2.7-1.8-5.3-3.8c-1.7-1.3-3.5-2.7-5.2-4.3z"/>
			</g>
			<g id="&lt;Group&gt;" clip-path="url(#cp2)">
				<path id="&lt;Path&gt;" class="s2" d="m362.3 493.7c-28.5 6.4-44.5 22.6-50.3 29.6q-0.6 0.7-1.2 1.5c-0.8 1.1-1.2 1.7-1.2 1.7 0 0-17.9 3-24 13.1 0 0-10.7 0.6-18.3 6.2 0 0-10.5-5.5-20-14.7-26.6 37.2-32.7 89.2-14.6 131.3 2.8-1.5 5.7-3 8.6-4.7 18.9-10.8 63.5-40.2 83.2-75.1 16.1-28.6 28-23.4 35.6-37q0 0 0 0c8.5-9 10.4-16.8 29.2-28 10.1-5.9-1.9-29.5-27-23.9z"/>
			</g>
		</g>
		<g id="&lt;Group&gt;">
			<g id="&lt;Group&gt;" style="opacity: .1">
				<path id="&lt;Path&gt;" class="s10" d="m150.7 805.2c-8.6 62.8-24.8 156.4-31.4 194.8h24.1c8-65.2 32.3-254.9 46.1-288.1 14-34.1 27.9-41.5 43.2-49.5 2.8-1.5 5.7-3 8.6-4.7 9.2-5.2 24.3-14.7 39.7-27.2-45.8 17.3-77.3 30.9-93 46.4-9.2 9.1-26.7 50.3-37.3 128.3z"/>
			</g>
		</g>
	</g>
	<g id="DESIGNED BY FREEPIK">
	</g>
</svg>